<svg xmlns="http://www.w3.org/2000/svg" xmlns:xlink="http://www.w3.org/1999/xlink" width="938.276" height="574.175" viewBox="0 0 703.707 430.631"><defs><clipPath id="a"><path d="M36 14h667.707v101H36Zm0 0"/></clipPath><clipPath id="b"><path d="M120 14.703h2v100.172h-2Zm0 0"/></clipPath><clipPath id="q"><path d="M286 14.703h2v100.172h-2Zm0 0"/></clipPath><clipPath id="u"><path d="M452 14.703h2v100.172h-2Zm0 0"/></clipPath><clipPath id="v"><path d="M618 14.703h2v100.172h-2Zm0 0"/></clipPath><clipPath id="w"><path d="M36.297 114h667.41v.875H36.297Zm0 0"/></clipPath><clipPath id="z"><path d="M36.297 90h667.41v2H36.297Zm0 0"/></clipPath><clipPath id="C"><path d="M36.297 66h667.41v2H36.297Zm0 0"/></clipPath><clipPath id="D"><path d="M36.297 42h667.41v2H36.297Zm0 0"/></clipPath><clipPath id="F"><path d="M36.297 19h667.41v1H36.297Zm0 0"/></clipPath><clipPath id="Q"><path d="M66 19h21v95.875H66Zm0 0"/></clipPath><clipPath id="R"><path d="M232 19h21v95.875h-21Zm0 0"/></clipPath><clipPath id="S"><path d="M398 29h21v85.875h-21Zm0 0"/></clipPath><clipPath id="T"><path d="M564 19h21v95.875h-21Zm0 0"/></clipPath><clipPath id="U"><path d="M88 38h21v76.875H88Zm0 0"/></clipPath><clipPath id="V"><path d="M254 38h21v76.875h-21Zm0 0"/></clipPath><clipPath id="W"><path d="M420 19h21v95.875h-21Zm0 0"/></clipPath><clipPath id="X"><path d="M587 19h20v95.875h-20Zm0 0"/></clipPath><clipPath id="Y"><path d="M110 38h21v76.875h-21Zm0 0"/></clipPath><clipPath id="Z"><path d="M277 29h20v85.875h-20Zm0 0"/></clipPath><clipPath id="aa"><path d="M443 48h21v66.875h-21Zm0 0"/></clipPath><clipPath id="ab"><path d="M609 19h21v95.875h-21Zm0 0"/></clipPath><clipPath id="ac"><path d="M133 67h20v47.875h-20Zm0 0"/></clipPath><clipPath id="ad"><path d="M299 48h21v66.875h-21Zm0 0"/></clipPath><clipPath id="ae"><path d="M465 113h21v1.875h-21Zm0 0"/></clipPath><clipPath id="af"><path d="M631 76h21v38.875h-21Zm0 0"/></clipPath><clipPath id="ag"><path d="M155 113h21v1.875h-21Zm0 0"/></clipPath><clipPath id="ah"><path d="M321 113h21v1.875h-21Zm0 0"/></clipPath><clipPath id="ai"><path d="M487 113h21v1.875h-21Zm0 0"/></clipPath><clipPath id="aj"><path d="M653 105h21v9.875h-21Zm0 0"/></clipPath><clipPath id="ak"><path d="M474 113h2v1.875h-2Zm0 0"/></clipPath><clipPath id="al"><path d="M471 113h8v1.875h-8Zm0 0"/></clipPath><clipPath id="am"><path d="M471 113h8v1.875h-8Zm0 0"/></clipPath><clipPath id="an"><path d="M164 113h2v1.875h-2Zm0 0"/></clipPath><clipPath id="ao"><path d="M330 113h2v1.875h-2Zm0 0"/></clipPath><clipPath id="ap"><path d="M496 113h2v1.875h-2Zm0 0"/></clipPath><clipPath id="aq"><path d="M662 95h2v19.875h-2Zm0 0"/></clipPath><clipPath id="ar"><path d="M161 113h8v1.875h-8Zm0 0"/></clipPath><clipPath id="as"><path d="M327 113h8v1.875h-8Zm0 0"/></clipPath><clipPath id="at"><path d="M493 113h8v1.875h-8Zm0 0"/></clipPath><clipPath id="au"><path d="M659 113h8v1.875h-8Zm0 0"/></clipPath><clipPath id="av"><path d="M161 113h8v1.875h-8Zm0 0"/></clipPath><clipPath id="aw"><path d="M327 113h8v1.875h-8Zm0 0"/></clipPath><clipPath id="ax"><path d="M493 113h8v1.875h-8Zm0 0"/></clipPath><clipPath id="ay"><path d="M703 13h.707v103H703Zm0 0"/></clipPath><clipPath id="az"><path d="M35 114h668.707v2H35Zm0 0"/></clipPath><clipPath id="aA"><path d="M35 13h668.707v3H35Zm0 0"/></clipPath><clipPath id="aS"><path d="M36 152h667.707v101H36Zm0 0"/></clipPath><clipPath id="aT"><path d="M120 152.777h2V252.95h-2Zm0 0"/></clipPath><clipPath id="aV"><path d="M286 152.777h2V252.95h-2Zm0 0"/></clipPath><clipPath id="aY"><path d="M452 152.777h2V252.95h-2Zm0 0"/></clipPath><clipPath id="bb"><path d="M618 152.777h2V252.95h-2Zm0 0"/></clipPath><clipPath id="be"><path d="M36.297 252h667.41v.95H36.297Zm0 0"/></clipPath><clipPath id="bf"><path d="M36.297 228h667.41v2H36.297Zm0 0"/></clipPath><clipPath id="bg"><path d="M36.297 204h667.41v2H36.297Zm0 0"/></clipPath><clipPath id="bh"><path d="M36.297 181h667.41v1H36.297Zm0 0"/></clipPath><clipPath id="bi"><path d="M36.297 157h667.41v1H36.297Zm0 0"/></clipPath><clipPath id="bj"><path d="M66 167h21v85.95H66Zm0 0"/></clipPath><clipPath id="bk"><path d="M232 167h21v85.95h-21Zm0 0"/></clipPath><clipPath id="bl"><path d="M398 167h21v85.95h-21Zm0 0"/></clipPath><clipPath id="bm"><path d="M564 167h21v85.95h-21Zm0 0"/></clipPath><clipPath id="bn"><path d="M88 157h21v95.95H88Zm0 0"/></clipPath><clipPath id="bo"><path d="M254 167h21v85.95h-21Zm0 0"/></clipPath><clipPath id="bp"><path d="M420 167h21v85.95h-21Zm0 0"/></clipPath><clipPath id="bq"><path d="M587 167h20v85.95h-20Zm0 0"/></clipPath><clipPath id="br"><path d="M110 167h21v85.95h-21Zm0 0"/></clipPath><clipPath id="bs"><path d="M277 167h20v85.95h-20Zm0 0"/></clipPath><clipPath id="bt"><path d="M443 167h21v85.95h-21Zm0 0"/></clipPath><clipPath id="bu"><path d="M609 205h21v47.95h-21Zm0 0"/></clipPath><clipPath id="bv"><path d="M133 195h20v57.95h-20Zm0 0"/></clipPath><clipPath id="bw"><path d="M299 186h21v66.95h-21Zm0 0"/></clipPath><clipPath id="bx"><path d="M465 214h21v38.95h-21Zm0 0"/></clipPath><clipPath id="by"><path d="M631 243h21v9.95h-21Zm0 0"/></clipPath><clipPath id="bz"><path d="M155 251h21v1.95h-21Zm0 0"/></clipPath><clipPath id="bA"><path d="M321 251h21v1.95h-21Zm0 0"/></clipPath><clipPath id="bB"><path d="M487 251h21v1.95h-21Zm0 0"/></clipPath><clipPath id="bC"><path d="M653 251h21v1.95h-21Zm0 0"/></clipPath><clipPath id="bD"><path d="M640 233h2v19.95h-2Zm0 0"/></clipPath><clipPath id="bE"><path d="M637 251h8v1.95h-8Zm0 0"/></clipPath><clipPath id="bF"><path d="M164 251h2v1.95h-2Zm0 0"/></clipPath><clipPath id="bG"><path d="M330 251h2v1.95h-2Zm0 0"/></clipPath><clipPath id="bH"><path d="M496 251h2v1.95h-2Zm0 0"/></clipPath><clipPath id="bI"><path d="M662 251h2v1.95h-2Zm0 0"/></clipPath><clipPath id="bJ"><path d="M161 251h8v1.95h-8Zm0 0"/></clipPath><clipPath id="bK"><path d="M327 251h8v1.95h-8Zm0 0"/></clipPath><clipPath id="bL"><path d="M493 251h8v1.95h-8Zm0 0"/></clipPath><clipPath id="bM"><path d="M659 251h8v1.95h-8Zm0 0"/></clipPath><clipPath id="bN"><path d="M161 251h8v1.95h-8Zm0 0"/></clipPath><clipPath id="bO"><path d="M327 251h8v1.95h-8Zm0 0"/></clipPath><clipPath id="bP"><path d="M493 251h8v1.95h-8Zm0 0"/></clipPath><clipPath id="bQ"><path d="M659 251h8v1.95h-8Zm0 0"/></clipPath><clipPath id="bR"><path d="M703 152h.707v102H703Zm0 0"/></clipPath><clipPath id="bS"><path d="M35 252h668.707v2H35Zm0 0"/></clipPath><clipPath id="bT"><path d="M35 152h668.707v2H35Zm0 0"/></clipPath><clipPath id="bW"><path d="M36 290h667.707v102H36Zm0 0"/></clipPath><clipPath id="bX"><path d="M120 290.852h2v100.171h-2Zm0 0"/></clipPath><clipPath id="ca"><path d="M286 290.852h2v100.171h-2Zm0 0"/></clipPath><clipPath id="cc"><path d="M452 290.852h2v100.171h-2Zm0 0"/></clipPath><clipPath id="cf"><path d="M618 290.852h2v100.171h-2Zm0 0"/></clipPath><clipPath id="ch"><path d="M36.297 390h667.41v1.023H36.297Zm0 0"/></clipPath><clipPath id="ci"><path d="M36.297 366h667.41v2H36.297Zm0 0"/></clipPath><clipPath id="cj"><path d="M36.297 342h667.41v2H36.297Zm0 0"/></clipPath><clipPath id="ck"><path d="M36.297 319h667.41v1H36.297Zm0 0"/></clipPath><clipPath id="cl"><path d="M36.297 295h667.41v2H36.297Zm0 0"/></clipPath><clipPath id="cm"><path d="M66 333h21v58.023H66Zm0 0"/></clipPath><clipPath id="cn"><path d="M232 333h21v58.023h-21Zm0 0"/></clipPath><clipPath id="co"><path d="M398 324h21v67.023h-21Zm0 0"/></clipPath><clipPath id="cp"><path d="M564 352h21v39.023h-21Zm0 0"/></clipPath><clipPath id="cq"><path d="M88 390h21v1.023H88Zm0 0"/></clipPath><clipPath id="cr"><path d="M254 362h21v29.023h-21Zm0 0"/></clipPath><clipPath id="cs"><path d="M420 362h21v29.023h-21Zm0 0"/></clipPath><clipPath id="ct"><path d="M587 371h20v20.023h-20Zm0 0"/></clipPath><clipPath id="cu"><path d="M110 381h21v10.023h-21Zm0 0"/></clipPath><clipPath id="cv"><path d="M277 381h20v10.023h-20Zm0 0"/></clipPath><clipPath id="cw"><path d="M443 381h21v10.023h-21Zm0 0"/></clipPath><clipPath id="cx"><path d="M609 371h21v20.023h-21Zm0 0"/></clipPath><clipPath id="cy"><path d="M133 390h20v1.023h-20Zm0 0"/></clipPath><clipPath id="cz"><path d="M299 390h21v1.023h-21Zm0 0"/></clipPath><clipPath id="cA"><path d="M465 390h21v1.023h-21Zm0 0"/></clipPath><clipPath id="cB"><path d="M631 390h21v1.023h-21Zm0 0"/></clipPath><clipPath id="cC"><path d="M155 390h21v1.023h-21Zm0 0"/></clipPath><clipPath id="cD"><path d="M321 390h21v1.023h-21Zm0 0"/></clipPath><clipPath id="cE"><path d="M487 390h21v1.023h-21Zm0 0"/></clipPath><clipPath id="cF"><path d="M653 390h21v1.023h-21Zm0 0"/></clipPath><clipPath id="cG"><path d="M120 371h2v20.023h-2Zm0 0"/></clipPath><clipPath id="cH"><path d="M286 371h2v20.023h-2Zm0 0"/></clipPath><clipPath id="cI"><path d="M452 371h2v20.023h-2Zm0 0"/></clipPath><clipPath id="cJ"><path d="M117 390h8v1.023h-8Zm0 0"/></clipPath><clipPath id="cK"><path d="M283 390h8v1.023h-8Zm0 0"/></clipPath><clipPath id="cL"><path d="M449 390h8v1.023h-8Zm0 0"/></clipPath><clipPath id="cM"><path d="M703 290h.707v102H703Zm0 0"/></clipPath><clipPath id="cN"><path d="M35 390h668.707v2H35Zm0 0"/></clipPath><clipPath id="cO"><path d="M35 290h668.707v2H35Zm0 0"/></clipPath><path id="c" d="M6.14-4.809c0 .66-.218 1.18-.64 1.559q-.634.57-1.73.57H1.75V0H.82v-6.879H3.72c.761 0 1.36.18 1.781.54.422.359.64.87.64 1.53m-.93.008c0-.879-.538-1.328-1.608-1.328H1.75v2.707h1.89c1.04 0 1.57-.457 1.57-1.379m0 0"/><path id="d" d="M.672-6.41v-.84h.879v.84Zm0 6.41v-5.281h.879V0Zm0 0"/><path id="e" d="M4.031 0v-3.352a2.6 2.6 0 0 0-.11-.808.74.74 0 0 0-.331-.41c-.149-.078-.371-.13-.649-.13-.43 0-.77.15-1.011.438q-.36.438-.36 1.203V0H.691v-4.16c0-.61-.011-.98-.03-1.121h.827c0 .02.012.062.012.133 0 .078.012.16.012.25s.008.257.02.52h.019c.199-.36.43-.622.699-.77q.392-.23.988-.23c.582 0 1 .148 1.274.429.258.289.398.77.398 1.43V0Zm0 0"/><path id="f" d="M1.352-2.46c0 .608.117 1.081.367 1.41.25.331.62.491 1.101.491.38 0 .68-.07.91-.23.23-.152.391-.34.47-.582l.78.223Q4.5.092 2.82.09c-.78 0-1.379-.23-1.789-.692-.41-.457-.61-1.16-.61-2.078 0-.86.2-1.53.61-2 .41-.46 1-.699 1.758-.699 1.55 0 2.332.938 2.332 2.809v.11ZM4.21-3.13c-.05-.55-.191-.95-.43-1.21-.242-.263-.57-.391-1.011-.391-.43 0-.77.152-1.008.43q-.374.42-.403 1.171Zm0 0"/><path id="g" d="M2.02.09c-.532 0-.93-.13-1.2-.41C.55-.602.422-.98.422-1.47c0-.543.18-.96.539-1.261.36-.29.937-.45 1.75-.47l1.18-.019v-.293c0-.43-.102-.738-.282-.918s-.468-.28-.847-.28c-.403 0-.684.07-.864.198q-.272.209-.32.64L.66-3.96c.14-.937.852-1.418 2.121-1.418.66 0 1.149.16 1.489.457q.51.451.511 1.32v2.274c0 .258.028.457.098.59.07.136.2.199.39.199q.125.001.29-.04v.548a3.6 3.6 0 0 1-.68.07c-.328 0-.57-.078-.707-.25-.152-.16-.23-.43-.25-.8H3.89c-.23.402-.493.69-.79.85-.3.161-.66.25-1.081.25m.199-.649c.32 0 .61-.07.86-.222.25-.14.452-.34.593-.598.137-.262.219-.52.219-.793v-.437l-.961.02q-.626.013-.942.128a.98.98 0 0 0-.488.36c-.121.16-.172.382-.172.64 0 .29.07.512.23.672.153.16.372.23.66.23m0 0"/><path id="h" d="M5.14-2.672C5.14-.828 4.489.09 3.2.09c-.821 0-1.36-.3-1.641-.91H1.53c.008.03.02.3.02.82v2.07H.67V-4.2c0-.538-.01-.902-.03-1.081h.847c0 .02.012.062.024.14 0 .082.008.211.02.371 0 .16.007.282.007.34h.02c.16-.32.363-.558.62-.718q.393-.23 1.02-.23c.64 0 1.13.218 1.45.66.32.437.492 1.116.492 2.046m-.921.024c0-.73-.098-1.25-.297-1.57-.203-.321-.524-.481-.953-.481-.348 0-.617.078-.82.219-.2.152-.348.378-.45.69q-.147.463-.148 1.212c0 .7.11 1.207.328 1.539.223.328.582.488 1.082.488q.656 0 .96-.48.299-.48.298-1.617m0 0"/><path id="i" d="M.672 0v-7.25h.879V0Zm0 0"/><path id="k" d="M1.762-4.64V0H.879v-4.64H.14v-.641h.738v-.598c0-.48.101-.82.32-1.043.211-.207.531-.316.973-.316.238 0 .45.02.617.058v.668c-.148-.02-.277-.039-.39-.039-.22 0-.387.063-.489.172q-.15.174-.148.617v.48h1.027v.641Zm0 0"/><path id="l" d="M.691 0v-4.05c0-.372-.011-.778-.03-1.231h.827c.024.601.043.96.043 1.082h.02q.21-.676.48-.93c.18-.16.438-.25.778-.25.113 0 .23.02.351.05v.798a2 2 0 0 0-.46-.047.92.92 0 0 0-.84.476c-.2.32-.29.774-.29 1.352V0Zm0 0"/><path id="m" d="M5.14-2.648c0 .93-.21 1.617-.609 2.07-.41.45-1 .668-1.77.668-.78 0-1.363-.23-1.75-.7-.402-.46-.59-1.14-.59-2.038q0-2.73 2.368-2.73c.8 0 1.402.23 1.781.667.38.441.57 1.133.57 2.063m-.921 0q0-1.084-.328-1.582c-.22-.329-.582-.5-1.09-.5-.52 0-.89.171-1.121.511s-.34.86-.34 1.57c0 .7.11 1.227.34 1.579.218.351.582.52 1.07.52q.781 0 1.129-.509c.223-.34.34-.87.34-1.59m0 0"/><path id="n" d="M3.75 0v-3.352q0-.76-.21-1.058c-.142-.192-.4-.29-.759-.29-.383 0-.672.15-.89.43-.22.29-.32.692-.32 1.211V0H.69v-4.16c0-.61-.011-.98-.03-1.121h.827c0 .02.012.062.012.133 0 .078.012.16.012.25s.008.257.02.52h.019c.18-.372.398-.634.64-.782.239-.14.54-.219.899-.219.398 0 .71.078.95.238.23.16.39.422.491.762h.008c.18-.351.402-.601.66-.762.262-.16.57-.238.942-.238.53 0 .918.149 1.16.438.238.293.37.761.37 1.421V0h-.87v-3.352q0-.76-.211-1.058c-.14-.192-.399-.29-.762-.29-.379 0-.68.15-.887.43-.222.282-.32.692-.32 1.211V0Zm0 0"/><path id="o" d="M6.21-1.898q0 .956-.75 1.468c-.5.352-1.19.52-2.089.52C1.691.09.711-.488.45-1.648l.91-.18q.151.626.66.906c.34.203.801.293 1.38.293C4-.629 4.468-.73 4.8-.94c.32-.2.488-.508.488-.91a.9.9 0 0 0-.16-.547c-.098-.141-.25-.25-.43-.34a3.2 3.2 0 0 0-.668-.23c-.261-.063-.543-.134-.851-.204-.54-.117-.961-.238-1.239-.36a2.2 2.2 0 0 1-.66-.41 1.34 1.34 0 0 1-.37-.519c-.09-.2-.13-.418-.13-.68 0-.59.219-1.039.668-1.359s1.102-.48 1.942-.48c.78 0 1.37.12 1.789.359q.614.365.87 1.223l-.921.16c-.098-.364-.3-.633-.578-.793-.281-.16-.672-.25-1.172-.25-.559 0-.98.101-1.27.281q-.432.27-.43.809c0 .222.051.39.173.53.109.141.27.25.488.352.21.098.629.207 1.262.348l.628.152c.211.047.41.11.61.18.191.07.37.149.539.25.16.098.312.207.43.348.12.14.222.3.293.48s.109.403.109.653m0 0"/><path id="p" d="M1.55-4.379c.18-.34.41-.601.68-.762.258-.16.598-.238 1.008-.238.57 0 .992.149 1.262.43.27.277.41.758.41 1.43V0h-.879v-3.352c0-.367-.043-.648-.11-.828a.7.7 0 0 0-.343-.39 1.4 1.4 0 0 0-.637-.13c-.421 0-.75.15-1 .43-.25.29-.37.668-.37 1.149V0H.69v-7.25h.88v1.89c0 .2-.012.41-.02.622q-.019.311-.02.36Zm0 0"/><path id="r" d="M2.71-.04c-.3.071-.589.11-.89.11C1.11.07.762-.32.762-1.12v-3.52H.148v-.64h.653l.25-1.18h.59v1.18h.98v.64h-.98v3.332q0 .387.12.54.12.147.438.148c.11 0 .281-.02.512-.07Zm0 0"/><path id="s" d="M6.14-1.941c0 .62-.23 1.09-.671 1.43q-.675.51-1.86.511H.82v-6.879h2.5c1.61 0 2.418.559 2.418 1.668 0 .41-.117.75-.34 1.031-.226.282-.546.461-.968.551.539.07.96.25 1.261.55.297.298.45.68.45 1.138M4.8-5.101c0-.36-.128-.63-.378-.79-.262-.16-.621-.238-1.102-.238H1.75v2.168h1.57q.75.002 1.11-.277c.242-.184.37-.473.37-.864m.4 3.09c0-.81-.571-1.22-1.712-1.22H1.75V-.75h1.809c.57 0 .992-.102 1.25-.309q.39-.317.39-.953m0 0"/><path id="t" d="M5.73 0H4.71l-.92-3.738-.18-.82q-.048.223-.141.628-.09.422-.989 3.93H1.46L0-5.281h.852l.898 3.59q.03.123.21.96l.08-.359 1.1-4.191h.95l.922 3.62.218.93.16-.68 1-3.87h.86Zm0 0"/><path id="x" d="M5.172-3.441c0 1.152-.211 2.03-.613 2.632-.399.598-1 .899-1.79.899-.8 0-1.39-.3-1.789-.899C.578-1.41.39-2.28.39-3.44.39-4.621.579-5.5.97-6.09c.383-.59.992-.89 1.832-.89.8 0 1.398.3 1.789.89.379.602.582 1.48.582 2.649m-.89 0c0-.989-.122-1.707-.352-2.16-.23-.438-.61-.669-1.13-.669q-.808 0-1.171.66C1.39-5.171 1.28-4.44 1.28-3.44c0 .98.117 1.691.36 2.14.238.461.62.68 1.14.68.508 0 .89-.23 1.13-.688.237-.46.37-1.171.37-2.132m0 0"/><path id="y" d="M.91 0v-1.07h.961V0Zm0 0"/><path id="A" d="M.5 0v-.621c.16-.379.371-.707.61-1.008.242-.293.492-.55.75-.793.261-.226.53-.45.788-.648.262-.2.493-.41.704-.61q.3-.3.5-.629c.128-.222.199-.48.199-.761 0-.371-.121-.66-.34-.871-.223-.207-.531-.32-.922-.32a1.42 1.42 0 0 0-.93.312c-.238.199-.379.488-.418.847L.54-5.18c.063-.55.3-.992.7-1.308.402-.32.921-.492 1.55-.492.691 0 1.223.171 1.602.492q.556.491.558 1.386c0 .274-.07.543-.187.801a3 3 0 0 1-.543.79q-.36.393-1.38 1.222a9 9 0 0 0-.89.828c-.219.25-.379.492-.48.711h3.59V0Zm0 0"/><path id="B" d="M5.14-2.238q0 1.09-.652 1.707c-.43.422-1.027.62-1.789.62-.64 0-1.16-.128-1.55-.41C.75-.6.5-1 .398-1.538l.89-.102c.18.68.66 1.02 1.43 1.02q.707 0 1.11-.418c.26-.281.401-.68.401-1.18 0-.43-.14-.781-.41-1.05-.27-.262-.629-.403-1.082-.403a2 2 0 0 0-.668.113 2 2 0 0 0-.61.38H.603l.226-3.7h3.91v.75h-3.11L1.5-3.949c.379-.29.852-.442 1.422-.442q1.02 0 1.617.602c.402.398.602.91.602 1.55m0 0"/><path id="E" d="M5.059-6.172C4.352-5.09 3.852-4.25 3.559-3.64q-.436.916-.649 1.801A8 8 0 0 0 2.7 0H1.78c0-.879.18-1.8.559-2.77.37-.968.988-2.09 1.87-3.359H.513v-.75h4.547Zm0 0"/><path id="G" d="M.762 0v-.75h1.75v-5.29L.96-4.93v-.832L2.59-6.879h.808V-.75H5.07V0Zm0 0"/><path id="aU" d="m5.7 0-.79-2.012H1.781L.988 0H.02l2.808-6.879h1.063L6.648 0ZM3.34-6.18l-.04.14c-.081.278-.198.618-.359 1.04L2.06-2.738h2.57L3.75-5.012a5 5 0 0 1-.27-.758Zm0 0"/><path id="aW" d="M5.14-2.672C5.14-.828 4.489.09 3.2.09c-.4 0-.74-.07-1-.211-.27-.14-.49-.379-.65-.7h-.01c0 .102-.009.262-.02.462q-.031.314-.032.359H.641c.02-.172.03-.531.03-1.09v-6.16h.88v2.07c0 .22-.012.47-.02.75h.02c.16-.34.379-.582.648-.73.262-.14.602-.219 1-.219.66 0 1.153.23 1.473.68.308.449.469 1.129.469 2.027m-.921.031c0-.738-.098-1.257-.297-1.578-.203-.32-.512-.48-.953-.48q-.75-.001-1.078.508c-.23.34-.34.87-.34 1.613 0 .7.11 1.207.328 1.539.223.328.582.488 1.082.488q.656.002.96-.488c.2-.32.298-.86.298-1.602m0 0"/><path id="aX" d="M.93 2.07q-.36 0-.602-.058v-.66c.121.02.25.027.41.027.543 0 .98-.399 1.301-1.2l.082-.199L.02-5.28h.94L2.079-2.36c.012.05.031.109.05.168.02.062.102.27.224.632.117.36.187.559.199.598l.347-.96 1.153-3.36h.93L2.948 0c-.219.55-.43.96-.61 1.238a2.1 2.1 0 0 1-.628.621q-.346.211-.781.211m0 0"/><path id="aZ" d="M4.64-1.46c0 .5-.19.89-.57 1.151-.379.27-.898.399-1.57.399-.66 0-1.172-.102-1.531-.32C.609-.441.379-.781.28-1.238l.77-.153c.078.282.23.493.469.621.23.141.558.2.98.2.441 0 .762-.059.969-.2.203-.14.312-.34.312-.62 0-.2-.082-.372-.222-.5-.137-.13-.368-.239-.68-.329L2.25-2.39c-.512-.12-.871-.25-1.078-.379a1.37 1.37 0 0 1-.5-.46 1.15 1.15 0 0 1-.184-.66c0-.481.172-.84.512-1.098.34-.25.84-.383 1.5-.383.578 0 1.05.11 1.39.312.34.207.56.54.66.989l-.8.101a.78.78 0 0 0-.39-.543c-.22-.117-.5-.187-.86-.187q-.597-.002-.879.18c-.191.12-.281.308-.281.55q0 .223.12.367c.08.102.188.18.349.25.152.07.472.16.96.282.461.12.801.218 1.012.32q.3.152.48.328c.118.121.208.262.278.422.063.16.102.34.102.54m0 0"/><path id="ba" d="M3.98 0 2.2-2.41l-.65.531V0H.673v-7.25h.879v4.531L3.87-5.28h1.027l-2.136 2.27L5.012 0Zm0 0"/><path id="bc" d="M3.871-6.219c-.77 0-1.36.25-1.781.739q-.629.736-.63 2.011c0 .84.22 1.52.661 2.028.438.52 1.027.77 1.79.77.96 0 1.679-.47 2.167-1.43l.762.382Q6.417-.822 5.648-.37c-.52.312-1.109.46-1.789.46-.699 0-1.3-.14-1.8-.429a2.75 2.75 0 0 1-1.16-1.23C.64-2.102.511-2.73.511-3.47c0-1.101.289-1.96.886-2.582q.885-.93 2.461-.93c.73 0 1.34.153 1.832.43.489.29.848.711 1.09 1.27l-.89.293a1.8 1.8 0 0 0-.77-.91c-.36-.211-.77-.32-1.25-.32m0 0"/><path id="bd" d="M1.531-5.281v3.351c0 .352.028.621.098.809q.105.3.332.422.221.119.66.12c.418 0 .758-.14 1-.433.238-.289.367-.687.367-1.207V-5.28h.883v4.152c0 .617.008.988.027 1.129H4.07c-.011-.012-.02-.05-.02-.129 0-.07-.01-.152-.01-.25 0-.09-.009-.262-.009-.52h-.02c-.202.36-.44.618-.702.77-.258.14-.59.219-.989.219-.582 0-1-.14-1.27-.43C.782-.62.649-1.102.649-1.762v-3.52Zm0 0"/><path id="bY" d="M7.379 0H6.262L5.07-4.371c-.082-.27-.191-.758-.34-1.469-.09.38-.16.7-.218.95C4.449-4.63 4.012-3 3.18 0H2.07L.04-6.879h.98l1.23 4.367c.14.551.281 1.114.41 1.692.07-.36.16-.75.262-1.168.098-.422.558-2.051 1.36-4.89h.898L6.37-2.603c.18.704.328 1.301.43 1.782l.05-.168q.119-.555.208-.91c.05-.243.511-1.903 1.37-4.98h.97Zm0 0"/><path id="bZ" d="M2.68 2.07c-.578 0-1.04-.12-1.38-.34C.96 1.5.739 1.18.64.762l.88-.133q.089.361.39.57c.2.13.461.2.79.2.87 0 1.312-.508 1.312-1.528V-.98H4c-.172.34-.398.601-.68.761q-.433.251-1.02.25c-.652 0-1.128-.21-1.429-.64-.3-.422-.45-1.102-.45-2.02 0-.93.157-1.621.49-2.07.32-.442.82-.672 1.487-.672.372 0 .692.09.973.262.277.18.488.418.64.73h.009c0-.101 0-.27.02-.512.01-.238.019-.37.038-.39h.844c-.024.18-.031.543-.031 1.09v4.043c0 1.476-.743 2.218-2.211 2.218m1.332-4.71q-.001-.646-.184-1.11c-.117-.309-.277-.55-.488-.71-.219-.161-.461-.25-.719-.25-.46 0-.793.17-.992.491q-.3.481-.3 1.578 0 1.082.28 1.563c.192.316.52.469.993.469.277 0 .52-.082.738-.243.21-.16.37-.398.488-.699.121-.3.184-.668.184-1.09m0 0"/><path id="cb" d="M7.3-3.469q0 1.078-.421 1.89a2.87 2.87 0 0 1-1.18 1.24C5.18-.052 4.58.09 3.88.09c-.707 0-1.32-.14-1.828-.418A2.8 2.8 0 0 1 .87-1.57C.601-2.11.47-2.75.47-3.47q0-1.65.902-2.582.897-.93 2.52-.93c.699 0 1.3.141 1.82.422.508.278.898.68 1.18 1.207.27.532.41 1.16.41 1.883m-.948 0c0-.86-.223-1.531-.653-2.02-.43-.48-1.027-.73-1.808-.73q-1.187 0-1.832.719c-.43.48-.637 1.16-.637 2.031 0 .86.207 1.547.648 2.047.43.512 1.032.762 1.809.762.793 0 1.402-.238 1.832-.73.418-.489.64-1.18.64-2.079m0 0"/><path id="cd" d="M5.469 0v-3.191H1.75V0H.82v-6.879h.93v2.91h3.719v-2.91h.941V0Zm0 0"/><path id="ce" d="M3.52-6.121V0h-.93v-6.121H.219v-.758h5.66v.758Zm0 0"/><path id="cg" d="M.922 0v-6.879h.937V0Zm0 0"/><path id="cW" d="M.621-2.602c0-.937.14-1.777.438-2.527.293-.742.742-1.45 1.363-2.121h.848c-.61.68-1.06 1.398-1.34 2.16-.29.762-.43 1.602-.43 2.5q0 1.35.422 2.488c.277.75.726 1.473 1.348 2.16h-.848A6.8 6.8 0 0 1 1.059-.058C.762-.8.62-1.64.62-2.579Zm0 0"/><path id="cX" d="M6.738-3.512c0 .711-.136 1.332-.418 1.864Q5.9-.838 5.148-.422C4.641-.14 4.051 0 3.391 0H.82v-6.879H3.1c1.16 0 2.047.3 2.688.879q.95.869.95 2.488m-.93 0c0-.847-.238-1.5-.706-1.949-.473-.437-1.141-.668-2.024-.668H1.75V-.75h1.54q.75 0 1.32-.328a2.24 2.24 0 0 0 .89-.953c.2-.418.309-.91.309-1.48m0 0"/><path id="cY" d="M2.71-2.578c0 .937-.151 1.789-.44 2.527A7 7 0 0 1 .91 2.06H.06q.921-1.033 1.34-2.16c.28-.75.43-1.579.43-2.489 0-.898-.15-1.738-.43-2.5Q.961-6.23.058-7.25H.91a7.1 7.1 0 0 1 1.36 2.129c.289.75.44 1.59.44 2.52Zm0 0"/><path id="H" d="M-1.898-6.21q.956 0 1.468.75c.352.5.52 1.19.52 2.089 0 1.68-.578 2.66-1.738 2.922l-.18-.91q.626-.151.906-.66c.203-.34.293-.801.293-1.38C-.629-4-.73-4.468-.94-4.8c-.2-.32-.508-.488-.91-.488a.9.9 0 0 0-.547.16c-.141.098-.25.25-.34.43a3.2 3.2 0 0 0-.23.668c-.063.261-.134.543-.204.851-.117.54-.238.961-.36 1.239a2.2 2.2 0 0 1-.41.66c-.136.16-.32.293-.519.37-.2.09-.418.13-.68.13C-5.73-.781-6.18-1-6.5-1.45s-.48-1.102-.48-1.942c0-.78.12-1.37.359-1.789q.365-.614 1.223-.87l.16.921c-.364.098-.633.3-.793.578-.16.281-.25.672-.25 1.172 0 .559.101.98.281 1.27q.27.432.809.43c.222 0 .39-.051.53-.173.141-.109.25-.27.352-.488.098-.21.207-.629.348-1.262l.152-.628c.047-.211.11-.41.18-.61.07-.191.149-.37.25-.539.098-.16.207-.312.348-.43.14-.12.3-.222.48-.293s.403-.109.653-.109m0 0"/><path id="I" d="M-5.281-1.531h3.351c.352 0 .621-.028.809-.098q.3-.105.422-.332.119-.221.12-.66c0-.418-.14-.758-.433-1-.289-.238-.687-.367-1.207-.367H-5.28v-.883h4.152c.617 0 .988-.008 1.129-.027v.828c-.012.011-.05.02-.129.02-.07 0-.152.01-.25.01-.09 0-.262.009-.52.009v.02c.36.202.618.44.77.702.14.258.219.59.219.989 0 .582-.14 1-.43 1.27-.281.269-.762.402-1.422.402h-3.52Zm0 0"/><path id="J" d="M-2.672-1.34c.711 0 1.23-.11 1.57-.332.34-.219.5-.558.5-1.008 0-.3-.078-.558-.25-.77-.16-.21-.418-.34-.777-.402l.059-.886c.511.078.91.297 1.21.66.301.36.45.816.45 1.379C.09-1.961-.14-1.391-.602-1c-.457.39-1.148.578-2.046.578-.883 0-1.563-.187-2.032-.59-.46-.386-.699-.949-.699-1.68 0-.538.14-.98.418-1.34.281-.359.672-.577 1.16-.679l.063.91c-.282.04-.512.16-.692.34-.172.191-.261.45-.261.79q.002.707.472 1.023c.309.207.828.308 1.547.308m0 0"/><path id="K" d="M-2.46-1.352c.608 0 1.081-.117 1.41-.367.331-.25.491-.62.491-1.101 0-.38-.07-.68-.23-.91-.152-.23-.34-.391-.582-.47l.223-.78Q.092-4.5.09-2.82c0 .78-.23 1.379-.692 1.789-.457.41-1.16.61-2.078.61-.86 0-1.53-.2-2-.61-.46-.41-.699-1-.699-1.758 0-1.55.938-2.332 2.809-2.332h.11ZM-3.13-4.21c-.55.05-.95.191-1.21.43-.263.242-.391.57-.391 1.011 0 .43.152.77.43 1.008q.42.374 1.171.403Zm0 0"/><path id="L" d="M-1.46-4.64c.5 0 .89.19 1.151.57.27.379.399.898.399 1.57 0 .66-.102 1.172-.32 1.531-.211.36-.551.59-1.008.688l-.153-.77c.282-.078.493-.23.621-.469.141-.23.2-.558.2-.98 0-.441-.059-.762-.2-.969-.14-.203-.34-.312-.62-.312-.2 0-.372.082-.5.222-.13.137-.239.368-.329.68l-.172.629c-.12.512-.25.871-.379 1.078a1.37 1.37 0 0 1-.46.5q-.27.183-.66.184c-.481 0-.84-.172-1.098-.512-.25-.34-.383-.84-.383-1.5 0-.578.11-1.05.312-1.39.207-.34.54-.56.989-.66l.101.8a.78.78 0 0 0-.543.39c-.117.22-.187.5-.187.86q-.002.597.18.879c.12.191.308.281.55.281q.223 0 .367-.12a.84.84 0 0 0 .25-.349c.07-.152.16-.472.282-.96.12-.461.218-.801.32-1.012q.152-.3.328-.48C-2.3-4.38-2.16-4.47-2-4.54c.16-.063.34-.102.54-.102m0 0"/><path id="N" d="m0-5.68-2.86 1.782v2.148H0v.93h-6.879V-4.06c0-.77.18-1.37.52-1.793q.519-.627 1.449-.628.768.002 1.289.449.526.45.66 1.23L0-6.76Zm-4.898.13c-.403 0-.704.14-.91.41q-.319.418-.32 1.18v2.21h2.538V-4c0-.488-.11-.871-.34-1.14-.23-.27-.55-.41-.968-.41m0 0"/><path id="O" d="M.09-2.02c0 .532-.13.93-.41 1.2-.282.27-.66.398-1.149.398-.543 0-.96-.18-1.261-.539-.29-.36-.45-.937-.47-1.75l-.019-1.18h-.293c-.43 0-.738.102-.918.282s-.28.468-.28.847c0 .403.07.684.198.864q.209.272.64.32l-.089.918c-.937-.14-1.418-.852-1.418-2.121 0-.66.16-1.149.457-1.489q.451-.51 1.32-.511h2.274c.258 0 .457-.028.59-.098.136-.07.199-.2.199-.39q.001-.125-.04-.29h.548c.043.22.07.45.07.68 0 .328-.078.57-.25.707-.16.152-.43.23-.8.25v.031c.402.23.69.493.85.79.161.3.25.66.25 1.081m-.649-.199c0-.32-.07-.61-.222-.86-.14-.25-.34-.452-.598-.593-.262-.137-.52-.219-.793-.219h-.437l.02.961q.013.626.128.942a.98.98 0 0 0 .36.488c.16.121.382.172.64.172.29 0 .512-.07.672-.23.16-.153.23-.372.23-.66m0 0"/><path id="P" d="M-.04-2.71c.071.3.11.589.11.89 0 .71-.39 1.058-1.191 1.058h-3.52v.614h-.64v-.653l-1.18-.25v-.59h1.18v-.98h.64v.98h3.332q.387 0 .54-.12.147-.12.148-.438c0-.11-.02-.281-.07-.512Zm0 0"/><path id="aB" d="M1.105 0v-8.258H2.23V0Zm0 0"/><path id="aC" d="M4.836 0v-4.02c0-.41-.047-.734-.133-.972-.082-.227-.215-.395-.394-.492-.18-.094-.446-.157-.782-.157-.515 0-.922.18-1.21.528q-.434.521-.434 1.441V0H.828v-4.992q0-1.093-.035-1.344h.996c0 .024.012.07.012.156 0 .094.012.192.012.301 0 .106.011.313.023.621h.023c.243-.43.516-.742.84-.922.313-.18.707-.277 1.188-.277.699 0 1.203.18 1.523.516.313.347.48.925.48 1.718V0Zm0 0"/><path id="aD" d="M.527-2.723v-.937H3.47v.937Zm0 0"/><path id="aE" d="M8.09-4.21q0 1.275-.504 2.23c-.34.648-.805 1.14-1.406 1.476Q5.258 0 4.066 0H.984v-8.258H3.72c1.394 0 2.46.363 3.23 1.059.754.695 1.14 1.691 1.14 2.988m-1.117 0c0-1.02-.29-1.802-.852-2.34-.566-.528-1.367-.805-2.426-.805H2.102v6.457h1.847q.897 0 1.582-.399a2.66 2.66 0 0 0 1.07-1.14c.239-.504.372-1.09.372-1.774m0 0"/><path id="aF" d="M.805-7.691V-8.7h1.054v1.008ZM.805 0v-6.336h1.054V0Zm0 0"/><path id="aG" d="M5.566-1.754c0 .602-.226 1.07-.683 1.383-.453.324-1.078.48-1.883.48-.793 0-1.402-.12-1.836-.386C.73-.527.457-.937.336-1.488l.926-.18c.093.336.273.59.562.742.278.168.672.242 1.176.242.527 0 .91-.074 1.164-.242.238-.168.371-.406.371-.742a.8.8 0 0 0-.262-.602c-.168-.156-.445-.285-.816-.394l-.758-.203c-.61-.145-1.043-.301-1.297-.457a1.7 1.7 0 0 1-.597-.551C.66-4.094.59-4.355.59-4.668c0-.574.203-1.008.61-1.32.41-.301 1.007-.457 1.8-.457.695 0 1.262.133 1.668.375q.61.374.793 1.187l-.961.117a.92.92 0 0 0-.469-.644C3.77-5.555 3.434-5.64 3-5.64c-.48 0-.828.074-1.055.214-.23.145-.336.375-.336.66 0 .18.047.325.145.446.094.12.226.215.418.3q.269.122 1.152.336c.551.145.961.262 1.211.383q.362.181.578.399c.145.14.25.308.336.504.07.191.117.406.117.644m0 0"/><path id="aH" d="M3.254-.047c-.363.082-.711.133-1.07.133C1.332.086.91-.383.91-1.344v-4.222H.18v-.77h.78l.302-1.418h.707v1.418h1.176v.77H1.969v3.996c0 .308.047.527.144.644.094.121.274.184.528.184q.198 0 .613-.086Zm0 0"/><path id="aI" d="M.828 0v-4.86q0-.668-.035-1.476h.996c.024.719.047 1.152.047 1.297h.023q.251-.811.579-1.117c.214-.192.527-.301.933-.301.133 0 .277.023.422.062v.957a2.3 2.3 0 0 0-.555-.058q-.661 0-1.008.574c-.238.387-.347.926-.347 1.621V0Zm0 0"/><path id="aJ" d="M6.168-3.203C6.168-.996 5.387.109 3.84.109c-.48 0-.887-.086-1.2-.254-.324-.167-.59-.457-.78-.84h-.012c0 .122-.012.313-.024.551A10 10 0 0 0 1.79 0H.77q.036-.303.036-1.309v-7.39h1.054v2.484c0 .262-.011.563-.023.899h.023c.192-.407.457-.696.782-.875.312-.168.718-.266 1.199-.266.793 0 1.379.277 1.765.816.372.54.563 1.356.563 2.438m-1.106.035c0-.887-.117-1.512-.359-1.894-.238-.387-.61-.579-1.14-.579-.598 0-1.032.204-1.293.614-.278.406-.41 1.043-.41 1.93 0 .84.132 1.452.398 1.85.262.395.695.587 1.293.587.527 0 .914-.192 1.152-.586.242-.387.36-1.035.36-1.922m0 0"/><path id="aK" d="M1.836-6.336v4.02c0 .421.035.746.121.972q.124.358.395.504.27.146.793.145c.503 0 .91-.168 1.199-.516s.445-.828.445-1.453v-3.672h1.055v4.98c0 .743.011 1.188.035 1.356h-.996c-.012-.012-.024-.059-.024-.156 0-.082-.011-.18-.011-.301 0-.105-.012-.313-.012-.621h-.024c-.242.43-.527.742-.84.922-.312.168-.706.265-1.187.265-.695 0-1.2-.168-1.523-.515-.324-.336-.48-.914-.48-1.707v-4.223Zm0 0"/><path id="aL" d="M6.168-3.18c0 1.118-.254 1.946-.73 2.485-.493.539-1.204.804-2.125.804-.938 0-1.633-.277-2.102-.84C.73-1.284.504-2.1.504-3.18q.001-3.276 2.844-3.277c.96 0 1.68.277 2.136.805.457.527.684 1.355.684 2.472m-1.106 0c0-.863-.128-1.5-.394-1.894-.266-.399-.695-.602-1.309-.602-.625 0-1.066.203-1.343.614-.278.406-.407 1.03-.407 1.882 0 .84.13 1.477.407 1.895.265.422.695.625 1.285.625q.938.001 1.355-.613c.266-.407.407-1.043.407-1.907m0 0"/><path id="aN" d="M2.102-7.344v3.07h4.605v.926H2.102V0H.984v-8.258h5.868v.914Zm0 0"/><path id="aO" d="M2.426.11C1.789.11 1.309-.048.984-.384s-.48-.793-.48-1.383q0-.966.648-1.511c.434-.348 1.13-.54 2.102-.563l1.414-.023v-.348c0-.516-.121-.89-.336-1.105s-.562-.336-1.02-.336c-.48 0-.816.086-1.03.242-.22.168-.348.418-.387.765L.793-4.754c.168-1.125 1.02-1.703 2.543-1.703.793 0 1.379.191 1.789.555q.61.538.61 1.582v2.722c0 .313.038.555.12.711.086.168.243.239.47.239.097 0 .214-.012.347-.047v.66c-.266.047-.54.082-.817.082-.394 0-.683-.094-.851-.3-.18-.192-.277-.517-.3-.958h-.036c-.277.48-.59.828-.95 1.02-.359.191-.788.3-1.292.3m.238-.782c.383 0 .73-.086 1.031-.265.301-.168.54-.407.707-.72.168-.312.266-.624.266-.948v-.528l-1.152.024c-.504.011-.875.062-1.13.156a1.2 1.2 0 0 0-.585.433c-.145.192-.203.458-.203.766 0 .352.082.613.273.805.18.191.445.277.793.277m0 0"/><path id="aP" d="M4.813-1.02c-.204.407-.47.708-.782.875-.324.168-.718.254-1.199.254-.805 0-1.39-.265-1.766-.804C.684-1.223.504-2.04.504-3.145c0-2.207.77-3.312 2.328-3.312.48 0 .875.098 1.2.266.312.18.577.457.78.84h.012l-.011-.708v-2.64h1.054v7.39q0 1.006.035 1.309H4.895c-.024-.059-.036-.203-.047-.434-.012-.214-.012-.418-.012-.586ZM1.608-3.18c0 .887.106 1.524.348 1.907q.356.579 1.152.578c.586 0 1.02-.203 1.293-.625.266-.407.41-1.055.41-1.934 0-.824-.144-1.437-.41-1.836-.273-.383-.707-.586-1.28-.586-.544 0-.927.203-1.165.586-.242.399-.348 1.035-.348 1.91m0 0"/><path id="aQ" d="M4.645-7.465c-.926 0-1.633.3-2.137.89q-.755.881-.754 2.41c0 1.009.262 1.825.789 2.438.527.622 1.238.922 2.148.922 1.153 0 2.016-.562 2.606-1.715l.91.458c-.336.718-.816 1.257-1.426 1.617-.625.375-1.332.554-2.148.554-.84 0-1.563-.168-2.16-.515a3.26 3.26 0 0 1-1.395-1.477C.77-2.52.613-3.277.613-4.164c0-1.32.348-2.352 1.067-3.098q1.06-1.113 2.953-1.113c.875 0 1.605.18 2.195.516.586.347 1.02.851 1.309 1.523l-1.07.348a2.17 2.17 0 0 0-.922-1.09 2.9 2.9 0 0 0-1.5-.387m0 0"/><path id="aR" d="M1.621-2.953q-.002 1.1.442 1.691c.3.399.746.59 1.32.59.457 0 .816-.086 1.094-.277.277-.18.468-.406.562-.696l.938.266C5.594-.383 4.727.11 3.383.11c-.934 0-1.656-.277-2.149-.828-.492-.554-.73-1.394-.73-2.496 0-1.031.238-1.836.73-2.402.493-.551 1.204-.84 2.114-.84 1.859 0 2.797 1.129 2.797 3.371v.133Zm3.43-.805c-.059-.656-.227-1.137-.516-1.449s-.683-.469-1.21-.469c-.516 0-.927.18-1.212.516-.3.336-.457.805-.48 1.402Zm0 0"/><path id="bU" d="M8.762-4.164q0 1.295-.504 2.27c-.336.648-.805 1.152-1.418 1.488-.625.347-1.344.515-2.184.515-.851 0-1.586-.168-2.195-.504-.625-.335-1.094-.84-1.418-1.488S.563-3.3.563-4.164q.002-1.98 1.082-3.098 1.077-1.113 3.023-1.113c.84 0 1.559.168 2.184.504a3.45 3.45 0 0 1 1.418 1.45c.324.636.492 1.394.492 2.257m-1.14 0c0-1.031-.267-1.836-.782-2.426-.516-.574-1.235-.875-2.172-.875q-1.424.002-2.195.863c-.516.579-.77 1.395-.77 2.438 0 1.031.254 1.86.781 2.46.516.61 1.235.911 2.172.911.95 0 1.68-.285 2.196-.875.503-.59.77-1.418.77-2.496m0 0"/><path id="bV" d="M2.113-5.566V0H1.055v-5.566H.168v-.77h.887v-.719c0-.578.12-.984.386-1.25.25-.25.633-.383 1.164-.383.286 0 .54.024.743.07v.806c-.18-.024-.336-.047-.47-.047-.26 0-.468.07-.585.203-.121.144-.18.383-.18.746v.574h1.235v.77Zm0 0"/><path id="cP" d="M1.86-5.258c.214-.406.492-.719.816-.91.312-.191.719-.289 1.21-.289.684 0 1.188.18 1.512.516s.493.914.493 1.718V0H4.836v-4.02c0-.445-.047-.78-.133-.996a.83.83 0 0 0-.406-.468 1.74 1.74 0 0 0-.77-.157c-.504 0-.898.18-1.199.516-.3.348-.445.805-.445 1.383V0H.828v-8.7h1.055v2.266c0 .243-.012.493-.024.747-.011.25-.023.394-.023.43Zm0 0"/><path id="cQ" d="M.805 0v-8.7h1.054V0Zm0 0"/><path id="cR" d="M3.215 2.484c-.695 0-1.246-.144-1.656-.41A1.86 1.86 0 0 1 .769.91L1.825.758q.106.43.469.683c.238.157.55.239.945.239 1.047 0 1.575-.614 1.575-1.836v-1.02H4.8c-.203.406-.48.719-.817.91-.347.207-.757.301-1.222.301-.782 0-1.36-.25-1.719-.765-.36-.504-.54-1.32-.54-2.426 0-1.117.192-1.946.59-2.485.384-.527.981-.804 1.786-.804.445 0 .828.11 1.164.312.336.219.59.504.77.875h.011c0-.117 0-.32.024-.61.011-.288.023-.444.047-.468h1.007q-.035.32-.035 1.309V-.18c0 1.778-.887 2.664-2.652 2.664m1.598-5.652c0-.516-.075-.96-.215-1.332-.145-.371-.336-.66-.59-.852-.266-.191-.551-.3-.863-.3-.551 0-.95.203-1.188.59-.242.382-.36 1.019-.36 1.894 0 .863.106 1.488.337 1.871.226.387.62.567 1.187.567.336 0 .621-.098.887-.29.254-.19.445-.48.59-.84.14-.359.215-.804.215-1.308m0 0"/><path id="cS" d="M8.004 0v-5.508c0-.601.012-1.187.047-1.754-.192.7-.371 1.25-.516 1.633L5.41 0h-.789l-2.16-5.629-.324-.996-.192-.637.012.649.023 1.105V0H.984v-8.258h1.477L4.656-2.53c.07.238.145.48.215.742q.11.4.145.566c.023-.144.097-.386.191-.71.098-.31.168-.516.219-.598L7.57-8.258h1.442V0Zm0 0"/><path id="cT" d="M6.168-3.203C6.168-.996 5.387.109 3.84.109 2.855.11 2.207-.254 1.87-.984h-.035c.012.035.023.359.023.984v2.484H.805v-7.523q0-.974-.035-1.297h1.02c0 .024.01.07.022.168 0 .098.012.254.024.445 0 .192.012.336.012.407h.023c.192-.383.434-.672.746-.864.313-.18.719-.277 1.223-.277.77 0 1.355.266 1.738.793.387.527.59 1.344.59 2.46m-1.106.023c0-.875-.117-1.5-.359-1.882-.238-.387-.625-.579-1.14-.579-.418 0-.743.098-.985.266-.238.18-.418.453-.539.828-.117.371-.18.852-.18 1.45 0 .84.133 1.452.399 1.85.262.395.695.587 1.293.587.527 0 .914-.192 1.152-.574q.362-.58.36-1.946m0 0"/><path id="cU" d="M7.453-2.281c0 .77-.3 1.355-.902 1.765-.598.418-1.426.625-2.508.625C2.027.11.852-.59.539-1.98l1.094-.214c.12.504.383.863.793 1.09.406.242.957.347 1.652.347.723 0 1.285-.117 1.684-.37.383-.24.586-.61.586-1.09 0-.266-.07-.493-.192-.66-.12-.169-.3-.302-.515-.411a4 4 0 0 0-.805-.273c-.313-.075-.649-.157-1.02-.243-.648-.144-1.152-.289-1.488-.43a2.7 2.7 0 0 1-.793-.492 1.64 1.64 0 0 1-.441-.625 1.9 1.9 0 0 1-.157-.816c0-.707.262-1.246.801-1.633q.815-.574 2.328-.574c.938 0 1.645.145 2.149.43.492.289.84.78 1.047 1.465l-1.106.19c-.12-.429-.36-.753-.695-.944-.336-.196-.805-.301-1.406-.301-.672 0-1.176.12-1.524.336-.347.215-.515.539-.515.972 0 .262.058.465.203.633.133.168.324.301.59.422.25.121.753.25 1.511.418.25.063.504.121.754.184.254.058.492.129.735.215.226.082.445.18.648.3.191.117.371.25.516.418a2 2 0 0 1 .347.578c.082.215.133.48.133.778m0 0"/><path id="cV" d="M4.777 0 2.641-2.89l-.782.632V0H.805v-8.7h1.054v5.434l2.786-3.07h1.234L3.313-3.613 6.012 0Zm0 0"/></defs><path fill="#fff" d="M0 430.633h703.707V0H0Zm0 0"/><g clip-path="url(#a)"><path fill="#fff" d="M36.297 114.875h667.41V14.703H36.297Zm0 0"/></g><g clip-path="url(#b)"><path fill="none" stroke="#ccc" stroke-linecap="round" stroke-linejoin="round" stroke-miterlimit="10" stroke-width=".8" d="M120.887 114.875V14.703"/></g><g fill="#262626"><use xlink:href="#c" x="74.464" y="125.625"/><use xlink:href="#d" x="81.134" y="125.625"/><use xlink:href="#e" x="83.354" y="125.625"/><use xlink:href="#f" x="88.914" y="125.625"/><use xlink:href="#g" x="94.474" y="125.625"/><use xlink:href="#h" x="100.034" y="125.625"/><use xlink:href="#h" x="105.594" y="125.625"/><use xlink:href="#i" x="111.154" y="125.625"/><use xlink:href="#f" x="113.374" y="125.625"/><use xlink:href="#j" x="118.934" y="125.625"/><use xlink:href="#k" x="121.714" y="125.625"/><use xlink:href="#l" x="124.494" y="125.625"/><use xlink:href="#m" x="127.824" y="125.625"/><use xlink:href="#n" x="133.384" y="125.625"/><use xlink:href="#j" x="141.714" y="125.625"/><use xlink:href="#o" x="144.494" y="125.625"/><use xlink:href="#p" x="151.164" y="125.625"/><use xlink:href="#f" x="156.724" y="125.625"/><use xlink:href="#i" x="162.284" y="125.625"/><use xlink:href="#k" x="164.504" y="125.625"/></g><g clip-path="url(#q)"><path fill="none" stroke="#ccc" stroke-linecap="round" stroke-linejoin="round" stroke-miterlimit="10" stroke-width=".8" d="M286.965 114.875V14.703"/></g><g fill="#262626"><use xlink:href="#c" x="246.932" y="125.625"/><use xlink:href="#d" x="253.602" y="125.625"/><use xlink:href="#e" x="255.822" y="125.625"/><use xlink:href="#f" x="261.382" y="125.625"/><use xlink:href="#g" x="266.942" y="125.625"/><use xlink:href="#h" x="272.502" y="125.625"/><use xlink:href="#h" x="278.062" y="125.625"/><use xlink:href="#i" x="283.622" y="125.625"/><use xlink:href="#f" x="285.842" y="125.625"/><use xlink:href="#j" x="291.402" y="125.625"/><use xlink:href="#r" x="294.182" y="125.625"/><use xlink:href="#m" x="296.962" y="125.625"/><use xlink:href="#j" x="302.522" y="125.625"/><use xlink:href="#s" x="305.302" y="125.625"/><use xlink:href="#m" x="311.972" y="125.625"/><use xlink:href="#t" x="317.532" y="125.625"/><use xlink:href="#i" x="324.752" y="125.625"/></g><g clip-path="url(#u)"><path fill="none" stroke="#ccc" stroke-linecap="round" stroke-linejoin="round" stroke-miterlimit="10" stroke-width=".8" d="M453.04 114.875V14.703"/></g><g fill="#262626"><use xlink:href="#s" x="423.853" y="125.625"/><use xlink:href="#m" x="430.523" y="125.625"/><use xlink:href="#t" x="436.083" y="125.625"/><use xlink:href="#i" x="443.303" y="125.625"/><use xlink:href="#j" x="445.523" y="125.625"/><use xlink:href="#r" x="448.303" y="125.625"/><use xlink:href="#m" x="451.083" y="125.625"/><use xlink:href="#j" x="456.643" y="125.625"/><use xlink:href="#o" x="459.423" y="125.625"/><use xlink:href="#p" x="466.093" y="125.625"/><use xlink:href="#f" x="471.653" y="125.625"/><use xlink:href="#i" x="477.213" y="125.625"/><use xlink:href="#k" x="479.433" y="125.625"/></g><g clip-path="url(#v)"><path fill="none" stroke="#ccc" stroke-linecap="round" stroke-linejoin="round" stroke-miterlimit="10" stroke-width=".8" d="M619.117 114.875V14.703"/></g><g fill="#262626"><use xlink:href="#s" x="584.102" y="125.625"/><use xlink:href="#m" x="590.772" y="125.625"/><use xlink:href="#t" x="596.332" y="125.625"/><use xlink:href="#i" x="603.552" y="125.625"/><use xlink:href="#j" x="605.772" y="125.625"/><use xlink:href="#k" x="608.552" y="125.625"/><use xlink:href="#l" x="611.332" y="125.625"/><use xlink:href="#m" x="614.662" y="125.625"/><use xlink:href="#n" x="620.222" y="125.625"/><use xlink:href="#j" x="628.552" y="125.625"/><use xlink:href="#o" x="631.332" y="125.625"/><use xlink:href="#p" x="638.002" y="125.625"/><use xlink:href="#f" x="643.562" y="125.625"/><use xlink:href="#i" x="649.122" y="125.625"/><use xlink:href="#k" x="651.342" y="125.625"/></g><g clip-path="url(#w)"><path fill="none" stroke="#ccc" stroke-linecap="round" stroke-linejoin="round" stroke-miterlimit="10" stroke-width=".8" d="M36.297 114.875h667.41"/></g><g fill="#262626"><use xlink:href="#x" x="13.328" y="118.5"/><use xlink:href="#y" x="18.888" y="118.5"/><use xlink:href="#x" x="21.668" y="118.5"/><use xlink:href="#x" x="27.228" y="118.5"/></g><g clip-path="url(#z)"><path fill="none" stroke="#ccc" stroke-linecap="round" stroke-linejoin="round" stroke-miterlimit="10" stroke-width=".8" d="M36.297 91.023h667.41"/></g><g fill="#262626"><use xlink:href="#x" x="13.328" y="94.65"/><use xlink:href="#y" x="18.888" y="94.65"/><use xlink:href="#A" x="21.668" y="94.65"/><use xlink:href="#B" x="27.228" y="94.65"/></g><g clip-path="url(#C)"><path fill="none" stroke="#ccc" stroke-linecap="round" stroke-linejoin="round" stroke-miterlimit="10" stroke-width=".8" d="M36.297 67.176h667.41"/></g><g fill="#262626"><use xlink:href="#x" x="13.328" y="70.799"/><use xlink:href="#y" x="18.888" y="70.799"/><use xlink:href="#B" x="21.668" y="70.799"/><use xlink:href="#x" x="27.228" y="70.799"/></g><g clip-path="url(#D)"><path fill="none" stroke="#ccc" stroke-linecap="round" stroke-linejoin="round" stroke-miterlimit="10" stroke-width=".8" d="M36.297 43.324h667.41"/></g><g fill="#262626"><use xlink:href="#x" x="13.328" y="46.949"/><use xlink:href="#y" x="18.888" y="46.949"/><use xlink:href="#E" x="21.668" y="46.949"/><use xlink:href="#B" x="27.228" y="46.949"/></g><g clip-path="url(#F)"><path fill="none" stroke="#ccc" stroke-linecap="round" stroke-linejoin="round" stroke-miterlimit="10" stroke-width=".8" d="M36.297 19.473h667.41"/></g><g fill="#262626"><use xlink:href="#G" x="13.328" y="23.098"/><use xlink:href="#y" x="18.888" y="23.098"/><use xlink:href="#x" x="21.668" y="23.098"/><use xlink:href="#x" x="27.228" y="23.098"/></g><g fill="#262626"><use xlink:href="#H" x="7.25" y="95.641"/><use xlink:href="#I" x="7.25" y="88.971"/><use xlink:href="#J" x="7.25" y="83.411"/><use xlink:href="#J" x="7.25" y="78.411"/><use xlink:href="#K" x="7.25" y="73.411"/><use xlink:href="#L" x="7.25" y="67.851"/><use xlink:href="#L" x="7.25" y="62.851"/><use xlink:href="#M" x="7.25" y="57.851"/><use xlink:href="#N" x="7.25" y="55.071"/><use xlink:href="#O" x="7.25" y="47.851"/><use xlink:href="#P" x="7.25" y="42.291"/><use xlink:href="#K" x="7.25" y="39.511"/></g><g clip-path="url(#Q)"><path fill="#ff0048" d="M66.633 114.875h19.93V19.473h-19.93Zm0 0"/></g><g clip-path="url(#R)"><path fill="#ff0048" d="M232.71 114.875h19.93V19.473h-19.93Zm0 0"/></g><g clip-path="url(#S)"><path fill="#ff0048" d="M398.79 114.875h19.929V29.012h-19.93Zm0 0"/></g><g clip-path="url(#T)"><path fill="#ff0048" d="M564.867 114.875h19.93V19.473h-19.93Zm0 0"/></g><g clip-path="url(#U)"><path fill="#ff4800" d="M88.777 114.875h19.93v-76.32h-19.93Zm0 0"/></g><g clip-path="url(#V)"><path fill="#ff4800" d="M254.855 114.875h19.93v-76.32h-19.93Zm0 0"/></g><g clip-path="url(#W)"><path fill="#ff4800" d="M420.934 114.875h19.93V19.473h-19.93Zm0 0"/></g><g clip-path="url(#X)"><path fill="#ff4800" d="M587.012 114.875h19.926V19.473h-19.926Zm0 0"/></g><g clip-path="url(#Y)"><path fill="#ffb200" d="M110.922 114.875h19.93v-76.32h-19.93Zm0 0"/></g><g clip-path="url(#Z)"><path fill="#ffb200" d="M277 114.875h19.93V29.012H277Zm0 0"/></g><g clip-path="url(#aa)"><path fill="#ffb200" d="M443.074 114.875h19.93V48.094h-19.93Zm0 0"/></g><g clip-path="url(#ab)"><path fill="#ffb200" d="M609.152 114.875h19.93V19.473h-19.93Zm0 0"/></g><g clip-path="url(#ac)"><path fill="#00bfaa" d="M133.066 114.875h19.926v-47.7h-19.926Zm0 0"/></g><g clip-path="url(#ad)"><path fill="#00bfaa" d="M299.14 114.875h19.93V48.094h-19.93Zm0 0"/></g><g clip-path="url(#ae)"><path fill="#00bfaa" d="M465.219 114.875h19.93v-.953h-19.93Zm0 0"/></g><g clip-path="url(#af)"><path fill="#00bfaa" d="M631.297 114.875h19.93v-38.16h-19.93Zm0 0"/></g><g clip-path="url(#ag)"><path fill="#00f" d="M155.207 114.875h19.93v-.953h-19.93Zm0 0"/></g><g clip-path="url(#ah)"><path fill="#00f" d="M321.285 114.875h19.93v-.953h-19.93Zm0 0"/></g><g clip-path="url(#ai)"><path fill="#00f" d="M487.363 114.875h19.93v-.953h-19.93Zm0 0"/></g><g clip-path="url(#aj)"><path fill="#00f" d="M653.441 114.875h19.93v-9.54h-19.93Zm0 0"/></g><path fill="none" stroke="#000" stroke-linejoin="round" stroke-miterlimit="10" d="M408.754 38.063V19.96M79.598 19.473h-6M245.676 19.473h-6M411.754 38.063h-6M577.832 19.473h-6M79.598 19.473h-6M245.676 19.473h-6M411.754 19.96h-6M577.832 19.473h-6M98.742 50.621V26.484M264.82 50.621V26.484M101.742 50.621h-6M267.82 50.621h-6M433.898 19.473h-6M599.973 19.473h-6M101.742 26.484h-6M267.82 26.484h-6M433.898 19.473h-6M599.973 19.473h-6M120.887 50.621V26.484M286.965 38.063V19.96M453.04 61.918V34.27M123.887 50.621h-6M289.965 38.063h-6M456.04 61.918h-6M622.117 19.473h-6M123.887 26.484h-6M289.965 19.96h-6M456.04 34.27h-6M622.117 19.473h-6M143.031 82.258V52.09M309.105 61.918V34.27"/><g clip-path="url(#ak)"><path fill="none" stroke="#000" stroke-linejoin="round" stroke-miterlimit="10" d="M475.184 113.922"/></g><path fill="none" stroke="#000" stroke-linejoin="round" stroke-miterlimit="10" d="M641.262 91.496V61.934M146.031 82.258h-6M312.105 61.918h-6"/><g clip-path="url(#al)"><path fill="none" stroke="#000" stroke-linejoin="round" stroke-miterlimit="10" d="M478.184 113.922h-6"/></g><path fill="none" stroke="#000" stroke-linejoin="round" stroke-miterlimit="10" d="M644.262 91.496h-6M146.031 52.09h-6M312.105 34.27h-6"/><g clip-path="url(#am)"><path fill="none" stroke="#000" stroke-linejoin="round" stroke-miterlimit="10" d="M478.184 113.922h-6"/></g><path fill="none" stroke="#000" stroke-linejoin="round" stroke-miterlimit="10" d="M644.262 61.934h-6"/><g clip-path="url(#an)"><path fill="none" stroke="#000" stroke-linejoin="round" stroke-miterlimit="10" d="M165.172 113.922"/></g><g clip-path="url(#ao)"><path fill="none" stroke="#000" stroke-linejoin="round" stroke-miterlimit="10" d="M331.25 113.922"/></g><g clip-path="url(#ap)"><path fill="none" stroke="#000" stroke-linejoin="round" stroke-miterlimit="10" d="M497.328 113.922"/></g><g clip-path="url(#aq)"><path fill="none" stroke="#000" stroke-linejoin="round" stroke-miterlimit="10" d="M663.406 114.387V96.285"/></g><g clip-path="url(#ar)"><path fill="none" stroke="#000" stroke-linejoin="round" stroke-miterlimit="10" d="M168.172 113.922h-6"/></g><g clip-path="url(#as)"><path fill="none" stroke="#000" stroke-linejoin="round" stroke-miterlimit="10" d="M334.25 113.922h-6"/></g><g clip-path="url(#at)"><path fill="none" stroke="#000" stroke-linejoin="round" stroke-miterlimit="10" d="M500.328 113.922h-6"/></g><g clip-path="url(#au)"><path fill="none" stroke="#000" stroke-linejoin="round" stroke-miterlimit="10" d="M666.406 114.387h-6"/></g><g clip-path="url(#av)"><path fill="none" stroke="#000" stroke-linejoin="round" stroke-miterlimit="10" d="M168.172 113.922h-6"/></g><g clip-path="url(#aw)"><path fill="none" stroke="#000" stroke-linejoin="round" stroke-miterlimit="10" d="M334.25 113.922h-6"/></g><g clip-path="url(#ax)"><path fill="none" stroke="#000" stroke-linejoin="round" stroke-miterlimit="10" d="M500.328 113.922h-6"/></g><path fill="none" stroke="#000" stroke-linejoin="round" stroke-miterlimit="10" d="M666.406 96.285h-6"/><path fill="none" stroke="#ccc" stroke-linecap="square" stroke-miterlimit="10" d="M36.297 114.875V14.703"/><g clip-path="url(#ay)"><path fill="none" stroke="#ccc" stroke-linecap="square" stroke-miterlimit="10" d="M703.707 114.875V14.703"/></g><g clip-path="url(#az)"><path fill="none" stroke="#ccc" stroke-linecap="square" stroke-miterlimit="10" d="M36.297 114.875h667.41"/></g><g clip-path="url(#aA)"><path fill="none" stroke="#ccc" stroke-linecap="square" stroke-miterlimit="10" d="M36.297 14.703h667.41"/></g><g fill="#262626"><use xlink:href="#aB" x="276.971" y="8.703"/><use xlink:href="#aC" x="280.307" y="8.703"/><use xlink:href="#aD" x="286.979" y="8.703"/><use xlink:href="#aE" x="290.975" y="8.703"/><use xlink:href="#aF" x="299.639" y="8.703"/><use xlink:href="#aG" x="302.303" y="8.703"/><use xlink:href="#aH" x="308.303" y="8.703"/><use xlink:href="#aI" x="311.639" y="8.703"/><use xlink:href="#aF" x="315.635" y="8.703"/><use xlink:href="#aJ" x="318.299" y="8.703"/><use xlink:href="#aK" x="324.971" y="8.703"/><use xlink:href="#aH" x="331.643" y="8.703"/><use xlink:href="#aF" x="334.979" y="8.703"/><use xlink:href="#aL" x="337.643" y="8.703"/><use xlink:href="#aC" x="344.315" y="8.703"/><use xlink:href="#aM" x="350.987" y="8.703"/><use xlink:href="#aN" x="354.323" y="8.703"/><use xlink:href="#aI" x="361.655" y="8.703"/><use xlink:href="#aK" x="365.651" y="8.703"/><use xlink:href="#aF" x="372.323" y="8.703"/><use xlink:href="#aH" x="374.987" y="8.703"/><use xlink:href="#aM" x="378.323" y="8.703"/><use xlink:href="#aO" x="381.659" y="8.703"/><use xlink:href="#aC" x="388.331" y="8.703"/><use xlink:href="#aP" x="395.003" y="8.703"/><use xlink:href="#aM" x="401.675" y="8.703"/><use xlink:href="#aQ" x="405.011" y="8.703"/><use xlink:href="#aL" x="413.675" y="8.703"/><use xlink:href="#aC" x="420.347" y="8.703"/><use xlink:href="#aH" x="427.019" y="8.703"/><use xlink:href="#aO" x="430.355" y="8.703"/><use xlink:href="#aF" x="437.027" y="8.703"/><use xlink:href="#aC" x="439.691" y="8.703"/><use xlink:href="#aR" x="446.363" y="8.703"/><use xlink:href="#aI" x="453.035" y="8.703"/><use xlink:href="#aG" x="457.031" y="8.703"/></g><g clip-path="url(#aS)"><path fill="#fff" d="M36.297 252.95h667.41V152.776H36.297Zm0 0"/></g><g clip-path="url(#aT)"><path fill="none" stroke="#ccc" stroke-linecap="round" stroke-linejoin="round" stroke-miterlimit="10" stroke-width=".8" d="M120.887 252.95V152.776"/></g><g fill="#262626"><use xlink:href="#aU" x="90.308" y="263.699"/><use xlink:href="#h" x="96.978" y="263.699"/><use xlink:href="#h" x="102.538" y="263.699"/><use xlink:href="#i" x="108.098" y="263.699"/><use xlink:href="#f" x="110.318" y="263.699"/><use xlink:href="#j" x="115.878" y="263.699"/><use xlink:href="#r" x="118.658" y="263.699"/><use xlink:href="#m" x="121.438" y="263.699"/><use xlink:href="#j" x="126.998" y="263.699"/><use xlink:href="#s" x="129.778" y="263.699"/><use xlink:href="#m" x="136.448" y="263.699"/><use xlink:href="#t" x="142.008" y="263.699"/><use xlink:href="#i" x="149.228" y="263.699"/></g><g clip-path="url(#aV)"><path fill="none" stroke="#ccc" stroke-linecap="round" stroke-linejoin="round" stroke-miterlimit="10" stroke-width=".8" d="M286.965 252.95V152.776"/></g><g fill="#262626"><use xlink:href="#o" x="245.002" y="263.699"/><use xlink:href="#r" x="251.672" y="263.699"/><use xlink:href="#l" x="254.452" y="263.699"/><use xlink:href="#g" x="257.782" y="263.699"/><use xlink:href="#t" x="263.342" y="263.699"/><use xlink:href="#aW" x="270.562" y="263.699"/><use xlink:href="#f" x="276.122" y="263.699"/><use xlink:href="#l" x="281.682" y="263.699"/><use xlink:href="#l" x="285.012" y="263.699"/><use xlink:href="#aX" x="288.342" y="263.699"/><use xlink:href="#j" x="293.342" y="263.699"/><use xlink:href="#r" x="296.122" y="263.699"/><use xlink:href="#m" x="298.902" y="263.699"/><use xlink:href="#j" x="304.462" y="263.699"/><use xlink:href="#s" x="307.242" y="263.699"/><use xlink:href="#m" x="313.912" y="263.699"/><use xlink:href="#t" x="319.472" y="263.699"/><use xlink:href="#i" x="326.692" y="263.699"/></g><g clip-path="url(#aY)"><path fill="none" stroke="#ccc" stroke-linecap="round" stroke-linejoin="round" stroke-miterlimit="10" stroke-width=".8" d="M453.04 252.95V152.776"/></g><g fill="#262626"><use xlink:href="#c" x="408.556" y="263.699"/><use xlink:href="#d" x="415.226" y="263.699"/><use xlink:href="#e" x="417.446" y="263.699"/><use xlink:href="#f" x="423.006" y="263.699"/><use xlink:href="#g" x="428.566" y="263.699"/><use xlink:href="#h" x="434.126" y="263.699"/><use xlink:href="#h" x="439.686" y="263.699"/><use xlink:href="#i" x="445.246" y="263.699"/><use xlink:href="#f" x="447.466" y="263.699"/><use xlink:href="#j" x="453.026" y="263.699"/><use xlink:href="#r" x="455.806" y="263.699"/><use xlink:href="#m" x="458.586" y="263.699"/><use xlink:href="#j" x="464.146" y="263.699"/><use xlink:href="#s" x="466.926" y="263.699"/><use xlink:href="#g" x="473.596" y="263.699"/><use xlink:href="#aZ" x="479.156" y="263.699"/><use xlink:href="#ba" x="484.156" y="263.699"/><use xlink:href="#f" x="489.156" y="263.699"/><use xlink:href="#r" x="494.716" y="263.699"/></g><g clip-path="url(#bb)"><path fill="none" stroke="#ccc" stroke-linecap="round" stroke-linejoin="round" stroke-miterlimit="10" stroke-width=".8" d="M619.117 252.95V152.776"/></g><g fill="#262626"><use xlink:href="#c" x="580.751" y="263.699"/><use xlink:href="#d" x="587.421" y="263.699"/><use xlink:href="#e" x="589.641" y="263.699"/><use xlink:href="#f" x="595.201" y="263.699"/><use xlink:href="#g" x="600.761" y="263.699"/><use xlink:href="#h" x="606.321" y="263.699"/><use xlink:href="#h" x="611.881" y="263.699"/><use xlink:href="#i" x="617.441" y="263.699"/><use xlink:href="#f" x="619.661" y="263.699"/><use xlink:href="#j" x="625.221" y="263.699"/><use xlink:href="#r" x="628.001" y="263.699"/><use xlink:href="#m" x="630.781" y="263.699"/><use xlink:href="#j" x="636.341" y="263.699"/><use xlink:href="#bc" x="639.121" y="263.699"/><use xlink:href="#bd" x="646.341" y="263.699"/><use xlink:href="#h" x="651.901" y="263.699"/></g><g clip-path="url(#be)"><path fill="none" stroke="#ccc" stroke-linecap="round" stroke-linejoin="round" stroke-miterlimit="10" stroke-width=".8" d="M36.297 252.95h667.41"/></g><g fill="#262626"><use xlink:href="#x" x="13.328" y="256.574"/><use xlink:href="#y" x="18.888" y="256.574"/><use xlink:href="#x" x="21.668" y="256.574"/><use xlink:href="#x" x="27.228" y="256.574"/></g><g clip-path="url(#bf)"><path fill="none" stroke="#ccc" stroke-linecap="round" stroke-linejoin="round" stroke-miterlimit="10" stroke-width=".8" d="M36.297 229.098h667.41"/></g><g fill="#262626"><use xlink:href="#x" x="13.328" y="232.724"/><use xlink:href="#y" x="18.888" y="232.724"/><use xlink:href="#A" x="21.668" y="232.724"/><use xlink:href="#B" x="27.228" y="232.724"/></g><g clip-path="url(#bg)"><path fill="none" stroke="#ccc" stroke-linecap="round" stroke-linejoin="round" stroke-miterlimit="10" stroke-width=".8" d="M36.297 205.25h667.41"/></g><g fill="#262626"><use xlink:href="#x" x="13.328" y="208.873"/><use xlink:href="#y" x="18.888" y="208.873"/><use xlink:href="#B" x="21.668" y="208.873"/><use xlink:href="#x" x="27.228" y="208.873"/></g><g clip-path="url(#bh)"><path fill="none" stroke="#ccc" stroke-linecap="round" stroke-linejoin="round" stroke-miterlimit="10" stroke-width=".8" d="M36.297 181.398h667.41"/></g><g fill="#262626"><use xlink:href="#x" x="13.328" y="185.023"/><use xlink:href="#y" x="18.888" y="185.023"/><use xlink:href="#E" x="21.668" y="185.023"/><use xlink:href="#B" x="27.228" y="185.023"/></g><g clip-path="url(#bi)"><path fill="none" stroke="#ccc" stroke-linecap="round" stroke-linejoin="round" stroke-miterlimit="10" stroke-width=".8" d="M36.297 157.547h667.41"/></g><g fill="#262626"><use xlink:href="#G" x="13.328" y="161.172"/><use xlink:href="#y" x="18.888" y="161.172"/><use xlink:href="#x" x="21.668" y="161.172"/><use xlink:href="#x" x="27.228" y="161.172"/></g><g fill="#262626"><use xlink:href="#H" x="7.25" y="233.715"/><use xlink:href="#I" x="7.25" y="227.045"/><use xlink:href="#J" x="7.25" y="221.485"/><use xlink:href="#J" x="7.25" y="216.485"/><use xlink:href="#K" x="7.25" y="211.485"/><use xlink:href="#L" x="7.25" y="205.925"/><use xlink:href="#L" x="7.25" y="200.925"/><use xlink:href="#M" x="7.25" y="195.925"/><use xlink:href="#N" x="7.25" y="193.145"/><use xlink:href="#O" x="7.25" y="185.925"/><use xlink:href="#P" x="7.25" y="180.365"/><use xlink:href="#K" x="7.25" y="177.585"/></g><g clip-path="url(#bj)"><path fill="#ff0048" d="M66.633 252.95h19.93v-85.864h-19.93Zm0 0"/></g><g clip-path="url(#bk)"><path fill="#ff0048" d="M232.71 252.95h19.93v-85.864h-19.93Zm0 0"/></g><g clip-path="url(#bl)"><path fill="#ff0048" d="M398.79 252.95h19.929v-85.864h-19.93Zm0 0"/></g><g clip-path="url(#bm)"><path fill="#ff0048" d="M564.867 252.95h19.93v-85.864h-19.93Zm0 0"/></g><g clip-path="url(#bn)"><path fill="#ff4800" d="M88.777 252.95h19.93v-95.403h-19.93Zm0 0"/></g><g clip-path="url(#bo)"><path fill="#ff4800" d="M254.855 252.95h19.93v-85.864h-19.93Zm0 0"/></g><g clip-path="url(#bp)"><path fill="#ff4800" d="M420.934 252.95h19.93v-85.864h-19.93Zm0 0"/></g><g clip-path="url(#bq)"><path fill="#ff4800" d="M587.012 252.95h19.926v-85.864h-19.926Zm0 0"/></g><g clip-path="url(#br)"><path fill="#ffb200" d="M110.922 252.95h19.93v-85.864h-19.93Zm0 0"/></g><g clip-path="url(#bs)"><path fill="#ffb200" d="M277 252.95h19.93v-85.864H277Zm0 0"/></g><g clip-path="url(#bt)"><path fill="#ffb200" d="M443.074 252.95h19.93v-85.864h-19.93Zm0 0"/></g><g clip-path="url(#bu)"><path fill="#ffb200" d="M609.152 252.95h19.93v-47.7h-19.93Zm0 0"/></g><g clip-path="url(#bv)"><path fill="#00bfaa" d="M133.066 252.95h19.926v-57.243h-19.926Zm0 0"/></g><g clip-path="url(#bw)"><path fill="#00bfaa" d="M299.14 252.95h19.93v-66.782h-19.93Zm0 0"/></g><g clip-path="url(#bx)"><path fill="#00bfaa" d="M465.219 252.95h19.93v-38.16h-19.93Zm0 0"/></g><g clip-path="url(#by)"><path fill="#00bfaa" d="M631.297 252.95h19.93v-9.54h-19.93Zm0 0"/></g><g clip-path="url(#bz)"><path fill="#00f" d="M155.207 252.95h19.93v-.954h-19.93Zm0 0"/></g><g clip-path="url(#bA)"><path fill="#00f" d="M321.285 252.95h19.93v-.954h-19.93Zm0 0"/></g><g clip-path="url(#bB)"><path fill="#00f" d="M487.363 252.95h19.93v-.954h-19.93Zm0 0"/></g><g clip-path="url(#bC)"><path fill="#00f" d="M653.441 252.95h19.93v-.954h-19.93Zm0 0"/></g><path fill="none" stroke="#000" stroke-linejoin="round" stroke-miterlimit="10" d="M76.598 176.137v-18.102M242.676 176.137v-18.102M408.754 176.137v-18.102M574.832 176.137v-18.102M79.598 176.137h-6M245.676 176.137h-6M411.754 176.137h-6M577.832 176.137h-6M79.598 158.035h-6M245.676 158.035h-6M411.754 158.035h-6M577.832 158.035h-6M264.82 176.137v-18.102M430.898 176.137v-18.102M596.973 176.137v-18.102M101.742 157.547h-6M267.82 176.137h-6M433.898 176.137h-6M599.973 176.137h-6M101.742 157.547h-6M267.82 158.035h-6M433.898 158.035h-6M599.973 158.035h-6M120.887 176.137v-18.102M286.965 176.137v-18.102M453.04 176.137v-18.102M619.117 220.332v-30.168M123.887 176.137h-6M289.965 176.137h-6M456.04 176.137h-6M622.117 220.332h-6M123.887 158.035h-6M289.965 158.035h-6M456.04 158.035h-6M622.117 190.164h-6M143.031 210.488V180.93M309.105 199.992v-27.648M475.184 229.566v-29.558"/><g clip-path="url(#bD)"><path fill="none" stroke="#000" stroke-linejoin="round" stroke-miterlimit="10" d="M641.262 252.46v-18.1"/></g><path fill="none" stroke="#000" stroke-linejoin="round" stroke-miterlimit="10" d="M146.031 210.488h-6M312.105 199.992h-6M478.184 229.566h-6"/><g clip-path="url(#bE)"><path fill="none" stroke="#000" stroke-linejoin="round" stroke-miterlimit="10" d="M644.262 252.46h-6"/></g><path fill="none" stroke="#000" stroke-linejoin="round" stroke-miterlimit="10" d="M146.031 180.93h-6M312.105 172.344h-6M478.184 200.008h-6M644.262 234.36h-6"/><g clip-path="url(#bF)"><path fill="none" stroke="#000" stroke-linejoin="round" stroke-miterlimit="10" d="M165.172 251.996"/></g><g clip-path="url(#bG)"><path fill="none" stroke="#000" stroke-linejoin="round" stroke-miterlimit="10" d="M331.25 251.996"/></g><g clip-path="url(#bH)"><path fill="none" stroke="#000" stroke-linejoin="round" stroke-miterlimit="10" d="M497.328 251.996"/></g><g clip-path="url(#bI)"><path fill="none" stroke="#000" stroke-linejoin="round" stroke-miterlimit="10" d="M663.406 251.996"/></g><g clip-path="url(#bJ)"><path fill="none" stroke="#000" stroke-linejoin="round" stroke-miterlimit="10" d="M168.172 251.996h-6"/></g><g clip-path="url(#bK)"><path fill="none" stroke="#000" stroke-linejoin="round" stroke-miterlimit="10" d="M334.25 251.996h-6"/></g><g clip-path="url(#bL)"><path fill="none" stroke="#000" stroke-linejoin="round" stroke-miterlimit="10" d="M500.328 251.996h-6"/></g><g clip-path="url(#bM)"><path fill="none" stroke="#000" stroke-linejoin="round" stroke-miterlimit="10" d="M666.406 251.996h-6"/></g><g clip-path="url(#bN)"><path fill="none" stroke="#000" stroke-linejoin="round" stroke-miterlimit="10" d="M168.172 251.996h-6"/></g><g clip-path="url(#bO)"><path fill="none" stroke="#000" stroke-linejoin="round" stroke-miterlimit="10" d="M334.25 251.996h-6"/></g><g clip-path="url(#bP)"><path fill="none" stroke="#000" stroke-linejoin="round" stroke-miterlimit="10" d="M500.328 251.996h-6"/></g><g clip-path="url(#bQ)"><path fill="none" stroke="#000" stroke-linejoin="round" stroke-miterlimit="10" d="M666.406 251.996h-6"/></g><path fill="none" stroke="#ccc" stroke-linecap="square" stroke-miterlimit="10" d="M36.297 252.95V152.776"/><g clip-path="url(#bR)"><path fill="none" stroke="#ccc" stroke-linecap="square" stroke-miterlimit="10" d="M703.707 252.95V152.776"/></g><g clip-path="url(#bS)"><path fill="none" stroke="#ccc" stroke-linecap="square" stroke-miterlimit="10" d="M36.297 252.95h667.41"/></g><g clip-path="url(#bT)"><path fill="none" stroke="#ccc" stroke-linecap="square" stroke-miterlimit="10" d="M36.297 152.777h667.41"/></g><g fill="#262626"><use xlink:href="#bU" x="265.307" y="146.777"/><use xlink:href="#aK" x="274.643" y="146.777"/><use xlink:href="#aH" x="281.315" y="146.777"/><use xlink:href="#aD" x="284.651" y="146.777"/><use xlink:href="#aL" x="288.647" y="146.777"/><use xlink:href="#bV" x="295.319" y="146.777"/><use xlink:href="#aD" x="298.655" y="146.777"/><use xlink:href="#aE" x="302.651" y="146.777"/><use xlink:href="#aF" x="311.315" y="146.777"/><use xlink:href="#aG" x="313.979" y="146.777"/><use xlink:href="#aH" x="319.979" y="146.777"/><use xlink:href="#aI" x="323.315" y="146.777"/><use xlink:href="#aF" x="327.311" y="146.777"/><use xlink:href="#aJ" x="329.975" y="146.777"/><use xlink:href="#aK" x="336.647" y="146.777"/><use xlink:href="#aH" x="343.319" y="146.777"/><use xlink:href="#aF" x="346.655" y="146.777"/><use xlink:href="#aL" x="349.319" y="146.777"/><use xlink:href="#aC" x="355.991" y="146.777"/><use xlink:href="#aM" x="362.663" y="146.777"/><use xlink:href="#aN" x="365.999" y="146.777"/><use xlink:href="#aI" x="373.331" y="146.777"/><use xlink:href="#aK" x="377.327" y="146.777"/><use xlink:href="#aF" x="383.999" y="146.777"/><use xlink:href="#aH" x="386.663" y="146.777"/><use xlink:href="#aM" x="389.999" y="146.777"/><use xlink:href="#aO" x="393.335" y="146.777"/><use xlink:href="#aC" x="400.007" y="146.777"/><use xlink:href="#aP" x="406.679" y="146.777"/><use xlink:href="#aM" x="413.351" y="146.777"/><use xlink:href="#aQ" x="416.687" y="146.777"/><use xlink:href="#aL" x="425.351" y="146.777"/><use xlink:href="#aC" x="432.023" y="146.777"/><use xlink:href="#aH" x="438.695" y="146.777"/><use xlink:href="#aO" x="442.031" y="146.777"/><use xlink:href="#aF" x="448.703" y="146.777"/><use xlink:href="#aC" x="451.367" y="146.777"/><use xlink:href="#aR" x="458.039" y="146.777"/><use xlink:href="#aI" x="464.711" y="146.777"/><use xlink:href="#aG" x="468.707" y="146.777"/></g><g clip-path="url(#bW)"><path fill="#fff" d="M36.297 391.023h667.41V290.852H36.297Zm0 0"/></g><g clip-path="url(#bX)"><path fill="none" stroke="#ccc" stroke-linecap="round" stroke-linejoin="round" stroke-miterlimit="10" stroke-width=".8" d="M120.887 391.023V290.852"/></g><g fill="#262626"><use xlink:href="#bY" x="82.261" y="401.773"/><use xlink:href="#d" x="91.701" y="401.773"/><use xlink:href="#h" x="93.921" y="401.773"/><use xlink:href="#d" x="99.481" y="401.773"/><use xlink:href="#e" x="101.701" y="401.773"/><use xlink:href="#bZ" x="107.261" y="401.773"/><use xlink:href="#j" x="112.821" y="401.773"/><use xlink:href="#t" x="115.601" y="401.773"/><use xlink:href="#d" x="122.821" y="401.773"/><use xlink:href="#r" x="125.041" y="401.773"/><use xlink:href="#p" x="127.821" y="401.773"/><use xlink:href="#j" x="133.381" y="401.773"/><use xlink:href="#bc" x="136.161" y="401.773"/><use xlink:href="#i" x="143.381" y="401.773"/><use xlink:href="#m" x="145.601" y="401.773"/><use xlink:href="#r" x="151.161" y="401.773"/><use xlink:href="#p" x="153.941" y="401.773"/></g><g clip-path="url(#ca)"><path fill="none" stroke="#ccc" stroke-linecap="round" stroke-linejoin="round" stroke-miterlimit="10" stroke-width=".8" d="M286.965 391.023V290.852"/></g><g fill="#262626"><use xlink:href="#cb" x="249.432" y="401.773"/><use xlink:href="#h" x="257.212" y="401.773"/><use xlink:href="#f" x="262.772" y="401.773"/><use xlink:href="#e" x="268.332" y="401.773"/><use xlink:href="#d" x="273.892" y="401.773"/><use xlink:href="#e" x="276.112" y="401.773"/><use xlink:href="#bZ" x="281.672" y="401.773"/><use xlink:href="#j" x="287.232" y="401.773"/><use xlink:href="#bc" x="290.012" y="401.773"/><use xlink:href="#g" x="297.232" y="401.773"/><use xlink:href="#aW" x="302.792" y="401.773"/><use xlink:href="#d" x="308.352" y="401.773"/><use xlink:href="#e" x="310.572" y="401.773"/><use xlink:href="#f" x="316.132" y="401.773"/><use xlink:href="#r" x="321.692" y="401.773"/></g><g clip-path="url(#cc)"><path fill="none" stroke="#ccc" stroke-linecap="round" stroke-linejoin="round" stroke-miterlimit="10" stroke-width=".8" d="M453.04 391.023V290.852"/></g><g fill="#262626"><use xlink:href="#cd" x="422.252" y="401.773"/><use xlink:href="#g" x="429.472" y="401.773"/><use xlink:href="#e" x="435.032" y="401.773"/><use xlink:href="#bZ" x="440.592" y="401.773"/><use xlink:href="#d" x="446.152" y="401.773"/><use xlink:href="#e" x="448.372" y="401.773"/><use xlink:href="#bZ" x="453.932" y="401.773"/><use xlink:href="#j" x="459.492" y="401.773"/></g><use xlink:href="#ce" x="462.1" y="401.773" fill="#262626"/><g fill="#262626"><use xlink:href="#g" x="467.1" y="401.773"/><use xlink:href="#h" x="472.66" y="401.773"/><use xlink:href="#f" x="478.22" y="401.773"/></g><g clip-path="url(#cf)"><path fill="none" stroke="#ccc" stroke-linecap="round" stroke-linejoin="round" stroke-miterlimit="10" stroke-width=".8" d="M619.117 391.023V290.852"/></g><g fill="#262626"><use xlink:href="#cg" x="583.876" y="401.773"/><use xlink:href="#e" x="586.656" y="401.773"/><use xlink:href="#aZ" x="592.216" y="401.773"/><use xlink:href="#f" x="597.216" y="401.773"/><use xlink:href="#l" x="602.776" y="401.773"/><use xlink:href="#r" x="606.106" y="401.773"/><use xlink:href="#d" x="608.886" y="401.773"/><use xlink:href="#e" x="611.106" y="401.773"/><use xlink:href="#bZ" x="616.666" y="401.773"/><use xlink:href="#j" x="622.226" y="401.773"/><use xlink:href="#bc" x="625.006" y="401.773"/><use xlink:href="#m" x="632.226" y="401.773"/><use xlink:href="#k" x="637.786" y="401.773"/></g><g fill="#262626"><use xlink:href="#k" x="640.394" y="401.773"/><use xlink:href="#f" x="643.174" y="401.773"/><use xlink:href="#f" x="648.734" y="401.773"/></g><g clip-path="url(#ch)"><path fill="none" stroke="#ccc" stroke-linecap="round" stroke-linejoin="round" stroke-miterlimit="10" stroke-width=".8" d="M36.297 391.023h667.41"/></g><g fill="#262626"><use xlink:href="#x" x="13.328" y="394.648"/><use xlink:href="#y" x="18.888" y="394.648"/><use xlink:href="#x" x="21.668" y="394.648"/><use xlink:href="#x" x="27.228" y="394.648"/></g><g clip-path="url(#ci)"><path fill="none" stroke="#ccc" stroke-linecap="round" stroke-linejoin="round" stroke-miterlimit="10" stroke-width=".8" d="M36.297 367.172h667.41"/></g><g fill="#262626"><use xlink:href="#x" x="13.328" y="370.798"/><use xlink:href="#y" x="18.888" y="370.798"/><use xlink:href="#A" x="21.668" y="370.798"/><use xlink:href="#B" x="27.228" y="370.798"/></g><g clip-path="url(#cj)"><path fill="none" stroke="#ccc" stroke-linecap="round" stroke-linejoin="round" stroke-miterlimit="10" stroke-width=".8" d="M36.297 343.32h667.41"/></g><g fill="#262626"><use xlink:href="#x" x="13.328" y="346.947"/><use xlink:href="#y" x="18.888" y="346.947"/><use xlink:href="#B" x="21.668" y="346.947"/><use xlink:href="#x" x="27.228" y="346.947"/></g><g clip-path="url(#ck)"><path fill="none" stroke="#ccc" stroke-linecap="round" stroke-linejoin="round" stroke-miterlimit="10" stroke-width=".8" d="M36.297 319.473h667.41"/></g><g fill="#262626"><use xlink:href="#x" x="13.328" y="323.096"/><use xlink:href="#y" x="18.888" y="323.096"/><use xlink:href="#E" x="21.668" y="323.096"/><use xlink:href="#B" x="27.228" y="323.096"/></g><g clip-path="url(#cl)"><path fill="none" stroke="#ccc" stroke-linecap="round" stroke-linejoin="round" stroke-miterlimit="10" stroke-width=".8" d="M36.297 295.621h667.41"/></g><g fill="#262626"><use xlink:href="#G" x="13.328" y="299.246"/><use xlink:href="#y" x="18.888" y="299.246"/><use xlink:href="#x" x="21.668" y="299.246"/><use xlink:href="#x" x="27.228" y="299.246"/></g><g fill="#262626"><use xlink:href="#H" x="7.25" y="371.789"/><use xlink:href="#I" x="7.25" y="365.119"/><use xlink:href="#J" x="7.25" y="359.559"/><use xlink:href="#J" x="7.25" y="354.559"/><use xlink:href="#K" x="7.25" y="349.559"/><use xlink:href="#L" x="7.25" y="343.999"/><use xlink:href="#L" x="7.25" y="338.999"/><use xlink:href="#M" x="7.25" y="333.999"/><use xlink:href="#N" x="7.25" y="331.219"/><use xlink:href="#O" x="7.25" y="323.999"/><use xlink:href="#P" x="7.25" y="318.439"/><use xlink:href="#K" x="7.25" y="315.659"/></g><g clip-path="url(#cm)"><path fill="#ff0048" d="M66.633 391.023h19.93v-57.242h-19.93Zm0 0"/></g><g clip-path="url(#cn)"><path fill="#ff0048" d="M232.71 391.023h19.93v-57.242h-19.93Zm0 0"/></g><g clip-path="url(#co)"><path fill="#ff0048" d="M398.79 391.023h19.929v-66.78h-19.93Zm0 0"/></g><g clip-path="url(#cp)"><path fill="#ff0048" d="M564.867 391.023h19.93v-38.16h-19.93Zm0 0"/></g><g clip-path="url(#cq)"><path fill="#ff4800" d="M88.777 391.023h19.93v-.953h-19.93Zm0 0"/></g><g clip-path="url(#cr)"><path fill="#ff4800" d="M254.855 391.023h19.93v-28.62h-19.93Zm0 0"/></g><g clip-path="url(#cs)"><path fill="#ff4800" d="M420.934 391.023h19.93v-28.62h-19.93Zm0 0"/></g><g clip-path="url(#ct)"><path fill="#ff4800" d="M587.012 391.023h19.926v-19.082h-19.926Zm0 0"/></g><g clip-path="url(#cu)"><path fill="#ffb200" d="M110.922 391.023h19.93v-9.539h-19.93Zm0 0"/></g><g clip-path="url(#cv)"><path fill="#ffb200" d="M277 391.023h19.93v-9.539H277Zm0 0"/></g><g clip-path="url(#cw)"><path fill="#ffb200" d="M443.074 391.023h19.93v-9.539h-19.93Zm0 0"/></g><g clip-path="url(#cx)"><path fill="#ffb200" d="M609.152 391.023h19.93v-19.082h-19.93Zm0 0"/></g><g clip-path="url(#cy)"><path fill="#00bfaa" d="M133.066 391.023h19.926v-.953h-19.926Zm0 0"/></g><g clip-path="url(#cz)"><path fill="#00bfaa" d="M299.14 391.023h19.93v-.953h-19.93Zm0 0"/></g><g clip-path="url(#cA)"><path fill="#00bfaa" d="M465.219 391.023h19.93v-.953h-19.93Zm0 0"/></g><g clip-path="url(#cB)"><path fill="#00bfaa" d="M631.297 391.023h19.93v-.953h-19.93Zm0 0"/></g><g clip-path="url(#cC)"><path fill="#00f" d="M155.207 391.023h19.93v-.953h-19.93Zm0 0"/></g><g clip-path="url(#cD)"><path fill="#00f" d="M321.285 391.023h19.93v-.953h-19.93Zm0 0"/></g><g clip-path="url(#cE)"><path fill="#00f" d="M487.363 391.023h19.93v-.953h-19.93Zm0 0"/></g><g clip-path="url(#cF)"><path fill="#00f" d="M653.441 391.023h19.93v-.953h-19.93Zm0 0"/></g><path fill="none" stroke="#000" stroke-linejoin="round" stroke-miterlimit="10" d="M76.598 348.563v-29.56M242.676 348.563v-29.56M408.754 338.066v-27.648M574.832 367.64v-29.558M79.598 348.563h-6M245.676 348.563h-6M411.754 338.066h-6M577.832 367.64h-6M79.598 319.004h-6M245.676 319.004h-6M411.754 310.418h-6M577.832 338.082h-6M264.82 376.227v-27.649M430.898 376.227v-27.649M596.973 384.012v-24.137M101.742 390.07h-6M267.82 376.227h-6M433.898 376.227h-6M599.973 384.012h-6M101.742 390.07h-6M267.82 348.578h-6M433.898 348.578h-6M599.973 359.875h-6"/><g clip-path="url(#cG)"><path fill="none" stroke="#000" stroke-linejoin="round" stroke-miterlimit="10" d="M120.887 390.535v-18.101"/></g><g clip-path="url(#cH)"><path fill="none" stroke="#000" stroke-linejoin="round" stroke-miterlimit="10" d="M286.965 390.535v-18.101"/></g><g clip-path="url(#cI)"><path fill="none" stroke="#000" stroke-linejoin="round" stroke-miterlimit="10" d="M453.04 390.535v-18.101"/></g><path fill="none" stroke="#000" stroke-linejoin="round" stroke-miterlimit="10" d="M619.117 384.012v-24.137"/><g clip-path="url(#cJ)"><path fill="none" stroke="#000" stroke-linejoin="round" stroke-miterlimit="10" d="M123.887 390.535h-6"/></g><g clip-path="url(#cK)"><path fill="none" stroke="#000" stroke-linejoin="round" stroke-miterlimit="10" d="M289.965 390.535h-6"/></g><g clip-path="url(#cL)"><path fill="none" stroke="#000" stroke-linejoin="round" stroke-miterlimit="10" d="M456.04 390.535h-6"/></g><path fill="none" stroke="#000" stroke-linejoin="round" stroke-miterlimit="10" d="M622.117 384.012h-6M123.887 372.434h-6M289.965 372.434h-6M456.04 372.434h-6M622.117 359.875h-6M146.031 390.07h-6M312.105 390.07h-6M478.184 390.07h-6M644.262 390.07h-6M146.031 390.07h-6M312.105 390.07h-6M478.184 390.07h-6M644.262 390.07h-6M168.172 390.07h-6M334.25 390.07h-6M500.328 390.07h-6M666.406 390.07h-6M168.172 390.07h-6M334.25 390.07h-6M500.328 390.07h-6M666.406 390.07h-6"/><path fill="none" stroke="#ccc" stroke-linecap="square" stroke-miterlimit="10" d="M36.297 391.023V290.852"/><g clip-path="url(#cM)"><path fill="none" stroke="#ccc" stroke-linecap="square" stroke-miterlimit="10" d="M703.707 391.023V290.852"/></g><g clip-path="url(#cN)"><path fill="none" stroke="#ccc" stroke-linecap="square" stroke-miterlimit="10" d="M36.297 391.023h667.41"/></g><g clip-path="url(#cO)"><path fill="none" stroke="#ccc" stroke-linecap="square" stroke-miterlimit="10" d="M36.297 290.852h667.41"/></g><g fill="#262626"><use xlink:href="#aQ" x="286.947" y="284.851"/><use xlink:href="#cP" x="295.611" y="284.851"/><use xlink:href="#aO" x="302.283" y="284.851"/><use xlink:href="#cQ" x="308.955" y="284.851"/><use xlink:href="#cQ" x="311.619" y="284.851"/><use xlink:href="#aR" x="314.283" y="284.851"/><use xlink:href="#aC" x="320.955" y="284.851"/><use xlink:href="#cR" x="327.627" y="284.851"/><use xlink:href="#aF" x="334.299" y="284.851"/><use xlink:href="#aC" x="336.963" y="284.851"/><use xlink:href="#cR" x="343.635" y="284.851"/><use xlink:href="#aM" x="350.307" y="284.851"/><use xlink:href="#cS" x="353.643" y="284.851"/><use xlink:href="#aO" x="363.639" y="284.851"/><use xlink:href="#aC" x="370.311" y="284.851"/><use xlink:href="#aF" x="376.983" y="284.851"/><use xlink:href="#cT" x="379.647" y="284.851"/><use xlink:href="#aK" x="386.319" y="284.851"/><use xlink:href="#cQ" x="392.991" y="284.851"/><use xlink:href="#aO" x="395.655" y="284.851"/><use xlink:href="#aH" x="402.327" y="284.851"/><use xlink:href="#aF" x="405.663" y="284.851"/><use xlink:href="#aL" x="408.327" y="284.851"/><use xlink:href="#aC" x="414.999" y="284.851"/><use xlink:href="#aM" x="421.671" y="284.851"/><use xlink:href="#cU" x="425.007" y="284.851"/><use xlink:href="#cV" x="433.011" y="284.851"/><use xlink:href="#aF" x="439.011" y="284.851"/><use xlink:href="#cQ" x="441.675" y="284.851"/><use xlink:href="#cQ" x="444.339" y="284.851"/><use xlink:href="#aG" x="447.003" y="284.851"/></g><path fill="#ff0048" d="M123.367 424.555h20v-7h-20Zm0 0"/><g fill="#262626"><use xlink:href="#cb" x="151.366" y="424.553"/><use xlink:href="#bd" x="159.146" y="424.553"/><use xlink:href="#l" x="164.706" y="424.553"/><use xlink:href="#aZ" x="168.036" y="424.553"/><use xlink:href="#j" x="173.036" y="424.553"/><use xlink:href="#cW" x="175.816" y="424.553"/><use xlink:href="#G" x="179.146" y="424.553"/><use xlink:href="#x" x="184.706" y="424.553"/><use xlink:href="#j" x="190.266" y="424.553"/><use xlink:href="#cX" x="193.046" y="424.553"/><use xlink:href="#f" x="200.266" y="424.553"/><use xlink:href="#n" x="205.826" y="424.553"/><use xlink:href="#m" x="214.156" y="424.553"/><use xlink:href="#aZ" x="219.716" y="424.553"/><use xlink:href="#cY" x="224.716" y="424.553"/></g><path fill="#ff4800" d="M248.055 424.555h20v-7h-20Zm0 0"/><g fill="#262626"><use xlink:href="#cb" x="276.054" y="424.553"/><use xlink:href="#bd" x="283.834" y="424.553"/><use xlink:href="#l" x="289.394" y="424.553"/><use xlink:href="#aZ" x="292.724" y="424.553"/><use xlink:href="#j" x="297.724" y="424.553"/><use xlink:href="#cW" x="300.504" y="424.553"/><use xlink:href="#B" x="303.834" y="424.553"/><use xlink:href="#j" x="309.394" y="424.553"/><use xlink:href="#cX" x="312.174" y="424.553"/><use xlink:href="#f" x="319.394" y="424.553"/><use xlink:href="#n" x="324.954" y="424.553"/><use xlink:href="#m" x="333.284" y="424.553"/><use xlink:href="#aZ" x="338.844" y="424.553"/><use xlink:href="#cY" x="343.844" y="424.553"/></g><path fill="#ffb200" d="M367.18 424.555h20v-7h-20Zm0 0"/><g fill="#262626"><use xlink:href="#cb" x="395.179" y="424.553"/><use xlink:href="#bd" x="402.959" y="424.553"/><use xlink:href="#l" x="408.519" y="424.553"/><use xlink:href="#aZ" x="411.849" y="424.553"/><use xlink:href="#j" x="416.849" y="424.553"/><use xlink:href="#cW" x="419.629" y="424.553"/><use xlink:href="#G" x="422.959" y="424.553"/><use xlink:href="#j" x="428.519" y="424.553"/><use xlink:href="#cX" x="431.299" y="424.553"/><use xlink:href="#f" x="438.519" y="424.553"/><use xlink:href="#n" x="444.079" y="424.553"/><use xlink:href="#m" x="452.409" y="424.553"/><use xlink:href="#cY" x="457.969" y="424.553"/></g><path fill="#00bfaa" d="M481.305 424.555h20v-7h-20Zm0 0"/><g fill="#262626"><use xlink:href="#c" x="509.304" y="424.553"/><use xlink:href="#d" x="515.974" y="424.553"/><use xlink:href="#x" x="518.194" y="424.553"/></g><path fill="#00f" d="M543.758 424.555h20v-7h-20Zm0 0"/><g fill="#262626"><use xlink:href="#cX" x="571.757" y="424.553"/><use xlink:href="#c" x="578.977" y="424.553"/></g></svg>